<?xml version="1.0" encoding="utf-8" standalone="no"?>
<!DOCTYPE svg PUBLIC "-//W3C//DTD SVG 1.1//EN"
  "http://www.w3.org/Graphics/SVG/1.1/DTD/svg11.dtd">
<svg xmlns:xlink="http://www.w3.org/1999/xlink" width="1382.4pt" height="702pt" viewBox="0 0 1382.4 702" xmlns="http://www.w3.org/2000/svg" version="1.1">
 <metadata>
  <rdf:RDF xmlns:dc="http://purl.org/dc/elements/1.1/" xmlns:cc="http://creativecommons.org/ns#" xmlns:rdf="http://www.w3.org/1999/02/22-rdf-syntax-ns#">
   <cc:Work>
    <dc:type rdf:resource="http://purl.org/dc/dcmitype/StillImage"/>
    <dc:date>2023-05-10T14:41:47.721367</dc:date>
    <dc:format>image/svg+xml</dc:format>
    <dc:creator>
     <cc:Agent>
      <dc:title>Matplotlib v3.7.1, https://matplotlib.org/</dc:title>
     </cc:Agent>
    </dc:creator>
   </cc:Work>
  </rdf:RDF>
 </metadata>
 <defs>
  <style type="text/css">*{stroke-linejoin: round; stroke-linecap: butt}</style>
 </defs>
 <g id="figure_1">
  <g id="patch_1">
   <path d="M 0 702 
L 1382.4 702 
L 1382.4 0 
L 0 0 
z
" style="fill: #ffffff"/>
  </g>
  <g id="axes_1">
   <g id="patch_2">
    <path d="M 55.296 351 
L 1327.104 351 
L 1327.104 70.2 
L 55.296 70.2 
z
" style="fill: #ffffff"/>
   </g>
   <g id="matplotlib.axis_1">
    <g id="ytick_1">
     <g id="line2d_1">
      <defs>
       <path id="m6806f439a2" d="M 0 0 
L -3.5 0 
" style="stroke: #000000; stroke-width: 0.8"/>
      </defs>
      <g>
       <use xlink:href="#m6806f439a2" x="55.296" y="334.342696" style="stroke: #000000; stroke-width: 0.8"/>
      </g>
     </g>
     <g id="text_1">
      <!-- 60 -->
      <g transform="translate(35.571 338.141915) scale(0.1 -0.1)">
       <defs>
        <path id="DejaVuSans-36" d="M 2113 2584 
Q 1688 2584 1439 2293 
Q 1191 2003 1191 1497 
Q 1191 994 1439 701 
Q 1688 409 2113 409 
Q 2538 409 2786 701 
Q 3034 994 3034 1497 
Q 3034 2003 2786 2293 
Q 2538 2584 2113 2584 
z
M 3366 4563 
L 3366 3988 
Q 3128 4100 2886 4159 
Q 2644 4219 2406 4219 
Q 1781 4219 1451 3797 
Q 1122 3375 1075 2522 
Q 1259 2794 1537 2939 
Q 1816 3084 2150 3084 
Q 2853 3084 3261 2657 
Q 3669 2231 3669 1497 
Q 3669 778 3244 343 
Q 2819 -91 2113 -91 
Q 1303 -91 875 529 
Q 447 1150 447 2328 
Q 447 3434 972 4092 
Q 1497 4750 2381 4750 
Q 2619 4750 2861 4703 
Q 3103 4656 3366 4563 
z
" transform="scale(0.015625)"/>
        <path id="DejaVuSans-30" d="M 2034 4250 
Q 1547 4250 1301 3770 
Q 1056 3291 1056 2328 
Q 1056 1369 1301 889 
Q 1547 409 2034 409 
Q 2525 409 2770 889 
Q 3016 1369 3016 2328 
Q 3016 3291 2770 3770 
Q 2525 4250 2034 4250 
z
M 2034 4750 
Q 2819 4750 3233 4129 
Q 3647 3509 3647 2328 
Q 3647 1150 3233 529 
Q 2819 -91 2034 -91 
Q 1250 -91 836 529 
Q 422 1150 422 2328 
Q 422 3509 836 4129 
Q 1250 4750 2034 4750 
z
" transform="scale(0.015625)"/>
       </defs>
       <use xlink:href="#DejaVuSans-36"/>
       <use xlink:href="#DejaVuSans-30" x="63.623047"/>
      </g>
     </g>
    </g>
    <g id="ytick_2">
     <g id="line2d_2">
      <g>
       <use xlink:href="#m6806f439a2" x="55.296" y="286.858932" style="stroke: #000000; stroke-width: 0.8"/>
      </g>
     </g>
     <g id="text_2">
      <!-- 65 -->
      <g transform="translate(35.571 290.658151) scale(0.1 -0.1)">
       <defs>
        <path id="DejaVuSans-35" d="M 691 4666 
L 3169 4666 
L 3169 4134 
L 1269 4134 
L 1269 2991 
Q 1406 3038 1543 3061 
Q 1681 3084 1819 3084 
Q 2600 3084 3056 2656 
Q 3513 2228 3513 1497 
Q 3513 744 3044 326 
Q 2575 -91 1722 -91 
Q 1428 -91 1123 -41 
Q 819 9 494 109 
L 494 744 
Q 775 591 1075 516 
Q 1375 441 1709 441 
Q 2250 441 2565 725 
Q 2881 1009 2881 1497 
Q 2881 1984 2565 2268 
Q 2250 2553 1709 2553 
Q 1456 2553 1204 2497 
Q 953 2441 691 2322 
L 691 4666 
z
" transform="scale(0.015625)"/>
       </defs>
       <use xlink:href="#DejaVuSans-36"/>
       <use xlink:href="#DejaVuSans-35" x="63.623047"/>
      </g>
     </g>
    </g>
    <g id="ytick_3">
     <g id="line2d_3">
      <g>
       <use xlink:href="#m6806f439a2" x="55.296" y="239.375168" style="stroke: #000000; stroke-width: 0.8"/>
      </g>
     </g>
     <g id="text_3">
      <!-- 70 -->
      <g transform="translate(35.571 243.174386) scale(0.1 -0.1)">
       <defs>
        <path id="DejaVuSans-37" d="M 525 4666 
L 3525 4666 
L 3525 4397 
L 1831 0 
L 1172 0 
L 2766 4134 
L 525 4134 
L 525 4666 
z
" transform="scale(0.015625)"/>
       </defs>
       <use xlink:href="#DejaVuSans-37"/>
       <use xlink:href="#DejaVuSans-30" x="63.623047"/>
      </g>
     </g>
    </g>
    <g id="ytick_4">
     <g id="line2d_4">
      <g>
       <use xlink:href="#m6806f439a2" x="55.296" y="191.891403" style="stroke: #000000; stroke-width: 0.8"/>
      </g>
     </g>
     <g id="text_4">
      <!-- 75 -->
      <g transform="translate(35.571 195.690622) scale(0.1 -0.1)">
       <use xlink:href="#DejaVuSans-37"/>
       <use xlink:href="#DejaVuSans-35" x="63.623047"/>
      </g>
     </g>
    </g>
    <g id="ytick_5">
     <g id="line2d_5">
      <g>
       <use xlink:href="#m6806f439a2" x="55.296" y="144.407639" style="stroke: #000000; stroke-width: 0.8"/>
      </g>
     </g>
     <g id="text_5">
      <!-- 80 -->
      <g transform="translate(35.571 148.206858) scale(0.1 -0.1)">
       <defs>
        <path id="DejaVuSans-38" d="M 2034 2216 
Q 1584 2216 1326 1975 
Q 1069 1734 1069 1313 
Q 1069 891 1326 650 
Q 1584 409 2034 409 
Q 2484 409 2743 651 
Q 3003 894 3003 1313 
Q 3003 1734 2745 1975 
Q 2488 2216 2034 2216 
z
M 1403 2484 
Q 997 2584 770 2862 
Q 544 3141 544 3541 
Q 544 4100 942 4425 
Q 1341 4750 2034 4750 
Q 2731 4750 3128 4425 
Q 3525 4100 3525 3541 
Q 3525 3141 3298 2862 
Q 3072 2584 2669 2484 
Q 3125 2378 3379 2068 
Q 3634 1759 3634 1313 
Q 3634 634 3220 271 
Q 2806 -91 2034 -91 
Q 1263 -91 848 271 
Q 434 634 434 1313 
Q 434 1759 690 2068 
Q 947 2378 1403 2484 
z
M 1172 3481 
Q 1172 3119 1398 2916 
Q 1625 2713 2034 2713 
Q 2441 2713 2670 2916 
Q 2900 3119 2900 3481 
Q 2900 3844 2670 4047 
Q 2441 4250 2034 4250 
Q 1625 4250 1398 4047 
Q 1172 3844 1172 3481 
z
" transform="scale(0.015625)"/>
       </defs>
       <use xlink:href="#DejaVuSans-38"/>
       <use xlink:href="#DejaVuSans-30" x="63.623047"/>
      </g>
     </g>
    </g>
    <g id="ytick_6">
     <g id="line2d_6">
      <g>
       <use xlink:href="#m6806f439a2" x="55.296" y="96.923875" style="stroke: #000000; stroke-width: 0.8"/>
      </g>
     </g>
     <g id="text_6">
      <!-- 85 -->
      <g transform="translate(35.571 100.723093) scale(0.1 -0.1)">
       <use xlink:href="#DejaVuSans-38"/>
       <use xlink:href="#DejaVuSans-35" x="63.623047"/>
      </g>
     </g>
    </g>
    <g id="text_7">
     <!-- Цена закрытия -->
     <g transform="translate(29.491312 250.514844) rotate(-90) scale(0.1 -0.1)">
      <defs>
       <path id="DejaVuSans-426" d="M 4184 0 
L 628 0 
L 628 4666 
L 1259 4666 
L 1259 531 
L 3553 531 
L 3553 4666 
L 4184 4666 
L 4184 531 
L 4716 531 
L 4716 -1003 
L 4184 -1003 
L 4184 0 
z
" transform="scale(0.015625)"/>
       <path id="DejaVuSans-435" d="M 3597 1894 
L 3597 1613 
L 953 1613 
Q 991 1019 1311 708 
Q 1631 397 2203 397 
Q 2534 397 2845 478 
Q 3156 559 3463 722 
L 3463 178 
Q 3153 47 2828 -22 
Q 2503 -91 2169 -91 
Q 1331 -91 842 396 
Q 353 884 353 1716 
Q 353 2575 817 3079 
Q 1281 3584 2069 3584 
Q 2775 3584 3186 3129 
Q 3597 2675 3597 1894 
z
M 3022 2063 
Q 3016 2534 2758 2815 
Q 2500 3097 2075 3097 
Q 1594 3097 1305 2825 
Q 1016 2553 972 2059 
L 3022 2063 
z
" transform="scale(0.015625)"/>
       <path id="DejaVuSans-43d" d="M 581 3500 
L 1159 3500 
L 1159 2072 
L 3025 2072 
L 3025 3500 
L 3603 3500 
L 3603 0 
L 3025 0 
L 3025 1613 
L 1159 1613 
L 1159 0 
L 581 0 
L 581 3500 
z
" transform="scale(0.015625)"/>
       <path id="DejaVuSans-430" d="M 2194 1759 
Q 1497 1759 1228 1600 
Q 959 1441 959 1056 
Q 959 750 1161 570 
Q 1363 391 1709 391 
Q 2188 391 2477 730 
Q 2766 1069 2766 1631 
L 2766 1759 
L 2194 1759 
z
M 3341 1997 
L 3341 0 
L 2766 0 
L 2766 531 
Q 2569 213 2275 61 
Q 1981 -91 1556 -91 
Q 1019 -91 701 211 
Q 384 513 384 1019 
Q 384 1609 779 1909 
Q 1175 2209 1959 2209 
L 2766 2209 
L 2766 2266 
Q 2766 2663 2505 2880 
Q 2244 3097 1772 3097 
Q 1472 3097 1187 3025 
Q 903 2953 641 2809 
L 641 3341 
Q 956 3463 1253 3523 
Q 1550 3584 1831 3584 
Q 2591 3584 2966 3190 
Q 3341 2797 3341 1997 
z
" transform="scale(0.015625)"/>
       <path id="DejaVuSans-20" transform="scale(0.015625)"/>
       <path id="DejaVuSans-437" d="M 2206 1888 
Q 2594 1813 2809 1584 
Q 3025 1356 3025 1019 
Q 3025 478 2622 193 
Q 2219 -91 1475 -91 
Q 1225 -91 961 -47 
Q 697 -3 416 84 
L 416 619 
Q 638 503 903 445 
Q 1169 388 1459 388 
Q 1931 388 2195 563 
Q 2459 738 2459 1019 
Q 2459 1294 2225 1461 
Q 1991 1628 1563 1628 
L 1100 1628 
L 1100 2103 
L 1584 2103 
Q 1947 2103 2158 2242 
Q 2369 2381 2369 2600 
Q 2369 2800 2151 2944 
Q 1934 3088 1563 3088 
Q 1341 3088 1089 3047 
Q 838 3006 534 2916 
L 534 3438 
Q 841 3513 1106 3550 
Q 1372 3588 1609 3588 
Q 2222 3588 2576 3342 
Q 2931 3097 2931 2656 
Q 2931 2366 2743 2164 
Q 2556 1963 2206 1888 
z
" transform="scale(0.015625)"/>
       <path id="DejaVuSans-43a" d="M 581 3500 
L 1153 3500 
L 1153 1856 
L 2775 3500 
L 3481 3500 
L 2144 2147 
L 3653 0 
L 3009 0 
L 1769 1766 
L 1153 1141 
L 1153 0 
L 581 0 
L 581 3500 
z
" transform="scale(0.015625)"/>
       <path id="DejaVuSans-440" d="M 1159 525 
L 1159 -1331 
L 581 -1331 
L 581 3500 
L 1159 3500 
L 1159 2969 
Q 1341 3281 1617 3432 
Q 1894 3584 2278 3584 
Q 2916 3584 3314 3078 
Q 3713 2572 3713 1747 
Q 3713 922 3314 415 
Q 2916 -91 2278 -91 
Q 1894 -91 1617 61 
Q 1341 213 1159 525 
z
M 3116 1747 
Q 3116 2381 2855 2742 
Q 2594 3103 2138 3103 
Q 1681 3103 1420 2742 
Q 1159 2381 1159 1747 
Q 1159 1113 1420 752 
Q 1681 391 2138 391 
Q 2594 391 2855 752 
Q 3116 1113 3116 1747 
z
" transform="scale(0.015625)"/>
       <path id="DejaVuSans-44b" d="M 3907 3500 
L 4482 3500 
L 4482 0 
L 3907 0 
L 3907 3500 
z
M 4195 3584 
L 4195 3584 
z
M 2781 1038 
Q 2781 1319 2576 1466 
Q 2372 1613 1978 1613 
L 1159 1613 
L 1159 459 
L 1978 459 
Q 2372 459 2576 607 
Q 2781 756 2781 1038 
z
M 581 3500 
L 1159 3500 
L 1159 2072 
L 2003 2072 
Q 2672 2072 3033 1817 
Q 3394 1563 3394 1038 
Q 3394 513 3033 256 
Q 2672 0 2003 0 
L 581 0 
L 581 3500 
z
" transform="scale(0.015625)"/>
       <path id="DejaVuSans-442" d="M 188 3500 
L 3541 3500 
L 3541 3041 
L 2147 3041 
L 2147 0 
L 1581 0 
L 1581 3041 
L 188 3041 
L 188 3500 
z
" transform="scale(0.015625)"/>
       <path id="DejaVuSans-438" d="M 3578 3500 
L 3578 0 
L 3006 0 
L 3006 2809 
L 1319 0 
L 581 0 
L 581 3500 
L 1153 3500 
L 1153 697 
L 2838 3500 
L 3578 3500 
z
" transform="scale(0.015625)"/>
       <path id="DejaVuSans-44f" d="M 1181 2491 
Q 1181 2231 1381 2084 
Q 1581 1938 1953 1938 
L 2728 1938 
L 2728 3041 
L 1953 3041 
Q 1581 3041 1381 2897 
Q 1181 2753 1181 2491 
z
M 363 0 
L 1431 1534 
Q 1069 1616 828 1830 
Q 588 2044 588 2491 
Q 588 2997 923 3248 
Q 1259 3500 1938 3500 
L 3306 3500 
L 3306 0 
L 2728 0 
L 2728 1478 
L 2013 1478 
L 981 0 
L 363 0 
z
" transform="scale(0.015625)"/>
      </defs>
      <use xlink:href="#DejaVuSans-426"/>
      <use xlink:href="#DejaVuSans-435" x="77.636719"/>
      <use xlink:href="#DejaVuSans-43d" x="139.160156"/>
      <use xlink:href="#DejaVuSans-430" x="204.541016"/>
      <use xlink:href="#DejaVuSans-20" x="265.820312"/>
      <use xlink:href="#DejaVuSans-437" x="297.607422"/>
      <use xlink:href="#DejaVuSans-430" x="350.78125"/>
      <use xlink:href="#DejaVuSans-43a" x="412.060547"/>
      <use xlink:href="#DejaVuSans-440" x="472.460938"/>
      <use xlink:href="#DejaVuSans-44b" x="535.9375"/>
      <use xlink:href="#DejaVuSans-442" x="614.892578"/>
      <use xlink:href="#DejaVuSans-438" x="673.144531"/>
      <use xlink:href="#DejaVuSans-44f" x="738.134766"/>
     </g>
    </g>
   </g>
   <g id="line2d_7">
    <path d="M 113.105455 241.749356 
L 116.308194 218.862147 
L 119.510934 238.330519 
L 122.713674 230.828076 
L 125.916414 230.828076 
L 138.727373 243.173883 
L 141.930113 248.966908 
L 145.132853 246.117854 
L 148.335593 264.826468 
L 161.146553 257.608916 
L 164.349292 236.051319 
L 167.552032 252.19577 
L 170.754772 273.183585 
L 180.362992 286.004259 
L 183.565732 285.909271 
L 186.768471 300.154401 
L 189.971211 296.925503 
L 193.173951 309.271275 
L 202.782171 300.154401 
L 205.984911 280.781016 
L 209.18765 289.802902 
L 212.39039 272.898694 
L 215.59313 268.05533 
L 225.20135 254.759933 
L 228.40409 241.179574 
L 231.60683 223.230717 
L 234.809569 211.644667 
L 238.012309 203.002587 
L 250.823269 213.069194 
L 257.228748 262.167389 
L 260.431488 265.39625 
L 270.039708 278.121937 
L 273.242448 265.206347 
L 276.445188 268.150317 
L 279.647927 289.518011 
L 282.850667 296.450637 
L 292.458887 264.351602 
L 295.661627 259.033443 
L 298.864367 276.507506 
L 302.067107 308.131674 
L 305.269846 299.869473 
L 314.878066 331.39869 
L 318.080806 301.199013 
L 321.283546 298.919813 
L 324.486286 269.954724 
L 327.689025 260.267995 
L 337.297245 243.838653 
L 340.499985 230.733088 
L 343.702725 253.525309 
L 346.905465 284.674647 
L 350.108204 281.635689 
L 359.716424 284.199853 
L 362.919164 292.082175 
L 366.121904 305.28262 
L 369.324644 314.019651 
L 372.527384 305.757486 
L 382.135603 298.824825 
L 385.338343 304.522898 
L 391.743823 287.143823 
L 404.554782 289.328108 
L 407.757522 292.84186 
L 410.960262 308.986384 
L 414.163002 298.824825 
L 417.365742 315.159251 
L 426.973961 307.276965 
L 430.176701 335.957127 
L 433.379441 324.845944 
L 436.582181 321.427107 
L 439.784921 316.01396 
L 449.39314 324.276125 
L 452.59588 326.555362 
L 455.79862 327.600011 
L 459.00136 325.985544 
L 462.2041 325.985544 
L 471.812319 305.947389 
L 475.015059 302.243662 
L 478.217799 287.238811 
L 481.420539 260.932765 
L 484.623279 281.635689 
L 494.231498 291.512321 
L 497.434238 294.266388 
L 500.636978 287.333799 
L 503.839718 287.523702 
L 507.042458 281.065907 
L 516.650677 303.47825 
L 519.853417 303.193359 
L 523.056157 319.432797 
L 526.258897 310.220935 
L 529.461637 301.768831 
L 539.069856 299.489631 
L 542.272596 289.802902 
L 545.475336 293.791594 
L 548.678076 288.853241 
L 551.880816 287.903581 
L 561.489036 271.094288 
L 564.691775 269.194966 
L 567.894515 258.273686 
L 571.097255 259.318334 
L 574.299995 262.737171 
L 587.110954 266.440899 
L 590.313694 262.167389 
L 593.516434 270.239615 
L 596.719174 261.977413 
L 606.327394 263.306953 
L 609.530133 262.072401 
L 612.732873 253.335406 
L 615.935613 241.084586 
L 619.138353 236.905992 
L 628.746573 234.436888 
L 631.949313 257.514 
L 635.152052 254.569958 
L 638.354792 241.369477 
L 641.557532 243.363787 
L 651.165752 253.905188 
L 654.368492 253.050515 
L 657.571231 246.307829 
L 660.773971 242.794005 
L 663.976711 234.3419 
L 673.584931 230.923063 
L 676.787671 238.61541 
L 679.99041 232.252603 
L 683.19315 235.481464 
L 686.39589 226.839457 
L 699.20685 232.252603 
L 702.40959 221.996093 
L 705.612329 222.850838 
L 708.815069 235.196573 
L 718.423289 231.018051 
L 721.626029 232.822385 
L 724.828769 241.274489 
L 728.031508 242.319138 
L 731.234248 242.794005 
L 740.842468 255.044824 
L 744.045208 252.955527 
L 747.247948 241.274489 
L 750.450687 240.039938 
L 753.653427 236.146307 
L 763.261647 241.274489 
L 766.464387 256.374364 
L 769.667127 249.251799 
L 772.869867 249.441703 
L 776.072606 259.033443 
L 785.680826 262.832159 
L 788.883566 262.927147 
L 792.086306 254.664946 
L 795.289046 257.893807 
L 798.491785 260.267995 
L 808.100005 263.306953 
L 811.302745 264.446589 
L 814.505485 252.005866 
L 817.708225 261.12274 
L 820.910964 258.938455 
L 830.519184 244.028556 
L 833.721924 248.207151 
L 836.924664 252.860539 
L 840.127404 255.994485 
L 843.330144 257.324025 
L 852.938363 249.726594 
L 856.141103 240.419816 
L 859.343843 244.028556 
L 862.546583 235.576452 
L 865.749323 216.487959 
L 875.357542 209.650357 
L 878.560282 173.847558 
L 881.763022 164.635697 
L 884.965762 168.624388 
L 888.168502 155.328919 
L 900.979461 167.009885 
L 904.182201 160.742066 
L 907.384941 156.658459 
L 910.587681 143.268003 
L 920.1959 127.978225 
L 923.39864 126.648685 
L 926.60138 130.257498 
L 929.80412 135.100789 
L 933.00686 140.798899 
L 942.615079 153.239622 
L 945.817819 153.904392 
L 949.020559 155.898701 
L 952.223299 136.525317 
L 955.426039 142.508317 
L 965.034258 125.034254 
L 968.236998 149.630882 
L 971.439738 154.379259 
L 974.642478 147.351609 
L 977.845218 151.530204 
L 987.453437 191.891403 
L 990.656177 167.86463 
L 997.061657 149.156015 
L 1000.264397 147.921464 
L 1009.872616 164.350806 
L 1013.075356 170.048843 
L 1016.278096 172.992885 
L 1019.480836 171.378382 
L 1022.683576 180.590244 
L 1032.291796 174.892207 
L 1035.494535 171.948237 
L 1038.697275 179.165789 
L 1041.900015 182.014772 
L 1045.102755 185.243705 
L 1054.710975 172.423031 
L 1057.913714 179.830559 
L 1061.116454 163.306157 
L 1064.319194 114.96772 
L 1067.521934 117.436896 
L 1077.130154 121.045636 
L 1080.332893 116.772053 
L 1083.535633 106.420628 
L 1086.738373 105.280991 
L 1089.941113 86.762352 
L 1099.549333 82.963636 
L 1102.752073 100.437699 
L 1105.954812 125.319145 
L 1109.157552 113.543192 
L 1112.360292 124.749363 
L 1121.968512 127.598418 
L 1125.171252 131.966916 
L 1128.373991 127.598418 
L 1131.576731 126.55377 
L 1134.779471 134.43602 
L 1144.387691 212.214449 
L 1147.590431 188.567554 
L 1150.79317 201.673047 
L 1157.19865 235.196573 
L 1166.80687 220.381662 
L 1170.00961 220.951444 
L 1173.21235 228.263984 
L 1176.415089 229.308633 
L 1179.617829 245.073205 
L 1189.226049 257.419013 
L 1192.428789 267.770439 
L 1195.631529 267.485548 
L 1198.834268 280.686028 
L 1202.037008 302.528589 
L 1211.645228 318.198209 
L 1214.847968 315.254239 
L 1218.050708 323.611356 
L 1221.253447 310.125984 
L 1224.456187 313.639772 
L 1234.064407 331.303738 
L 1237.267147 316.963621 
L 1240.469887 326.175483 
L 1243.672627 334.437648 
L 1256.483586 327.78995 
L 1259.686326 328.834562 
L 1262.889066 338.236364 
L 1266.091806 321.617046 
L 1269.294545 329.59432 
L 1269.294545 329.59432 
" clip-path="url(#p7679fe630e)" style="fill: none; stroke: #1f77b4; stroke-opacity: 0.35; stroke-width: 1.5; stroke-linecap: square"/>
   </g>
   <g id="line2d_8">
    <path d="M 113.105455 241.749356 
L 116.308194 229.733571 
L 119.510934 232.890319 
L 122.713674 232.294981 
L 125.916414 231.940149 
L 135.524634 233.668873 
L 138.727373 235.466035 
L 141.930113 237.799729 
L 145.132853 239.133997 
L 148.335593 243.00306 
L 161.146553 245.087211 
L 164.349292 243.856268 
L 167.552032 244.947609 
L 170.754772 248.515571 
L 180.362992 253.109736 
L 183.565732 257.022401 
L 186.768471 262.04678 
L 189.971211 266.025205 
L 193.173951 270.866896 
L 202.782171 274.091913 
L 205.984911 274.817691 
L 209.18765 276.422327 
L 212.39039 276.049428 
L 215.59313 275.212294 
L 225.20135 273.090659 
L 228.40409 269.808239 
L 231.60683 265.053456 
L 234.809569 259.638382 
L 238.012309 253.93123 
L 250.823269 249.83624 
L 254.026009 248.651023 
L 257.228748 249.992846 
L 260.431488 251.515856 
L 270.039708 254.136996 
L 273.242448 255.223948 
L 276.445188 256.489506 
L 279.647927 259.714567 
L 282.850667 263.29304 
L 292.458887 263.395932 
L 295.661627 262.972731 
L 298.864367 264.283405 
L 302.067107 268.52278 
L 305.269846 271.549095 
L 314.878066 277.319643 
L 318.080806 279.61932 
L 321.283546 281.476055 
L 324.486286 280.368753 
L 327.689025 278.438574 
L 337.297245 275.118723 
L 340.499985 270.862964 
L 343.702725 269.201673 
L 346.905465 270.683428 
L 350.108204 271.73171 
L 359.716424 272.924516 
L 362.919164 274.756507 
L 366.121904 277.674496 
L 369.324644 281.147505 
L 372.527384 283.498396 
L 382.135603 284.962046 
L 385.338343 286.82959 
L 388.541083 287.68448 
L 391.743823 287.632885 
L 404.554782 287.79463 
L 407.757522 288.276114 
L 410.960262 290.251475 
L 414.163002 291.06909 
L 417.365742 293.366203 
L 426.973961 294.692506 
L 430.176701 298.626412 
L 433.379441 301.125776 
L 436.582181 303.060823 
L 439.784921 304.295372 
L 449.39314 306.199579 
L 455.79862 309.993814 
L 459.00136 311.517594 
L 462.2041 312.896114 
L 471.812319 312.234061 
L 475.015059 311.282244 
L 478.217799 308.99163 
L 481.420539 304.413215 
L 484.623279 302.243335 
L 494.231498 301.221081 
L 497.434238 300.558581 
L 500.636978 299.298824 
L 503.839718 298.177179 
L 507.042458 296.547264 
L 516.650677 297.207457 
L 519.853417 297.77762 
L 523.056157 299.84027 
L 526.258897 300.829015 
L 529.461637 300.91853 
L 539.069856 300.782432 
L 542.272596 299.736677 
L 545.475336 299.170436 
L 551.880816 297.208273 
L 561.489036 294.72109 
L 564.691775 292.28991 
L 567.894515 289.050123 
L 571.097255 286.218409 
L 574.299995 283.982018 
L 587.110954 282.31138 
L 590.313694 280.392847 
L 593.516434 279.425846 
L 596.719174 277.764049 
L 606.327394 276.387152 
L 609.530133 275.023815 
L 612.732873 272.958214 
L 619.138353 266.778096 
L 628.746573 263.69794 
L 631.949313 263.108986 
L 635.152052 262.295736 
L 638.354792 260.302739 
L 641.557532 258.689491 
L 651.165752 258.233839 
L 654.368492 257.740186 
L 657.571231 256.651382 
L 660.773971 255.331624 
L 663.976711 253.332592 
L 673.584931 251.19834 
L 676.787671 249.999961 
L 679.99041 248.309729 
L 683.19315 247.087985 
L 686.39589 245.159548 
L 699.20685 243.930311 
L 702.40959 241.841332 
L 705.612329 240.032709 
L 708.815069 239.572124 
L 718.423289 238.757449 
L 721.626029 238.192203 
L 728.031508 238.85084 
L 731.234248 239.22638 
L 740.842468 240.7329 
L 744.045208 241.896961 
L 747.247948 241.837678 
L 750.450687 241.666464 
L 753.653427 241.140735 
L 763.261647 241.153473 
L 766.464387 242.603083 
L 772.869867 243.827286 
L 776.072606 245.275492 
L 785.680826 246.947556 
L 788.883566 248.469423 
L 792.086306 249.059473 
L 795.289046 249.900838 
L 798.491785 250.888187 
L 808.100005 252.070927 
L 811.302745 253.249562 
L 814.505485 253.131114 
L 817.708225 253.892222 
L 820.910964 254.372816 
L 830.519184 253.387648 
L 833.721924 252.894267 
L 836.924664 252.891055 
L 843.330144 253.580658 
L 852.938363 253.213605 
L 856.141103 251.995148 
L 859.343843 251.236425 
L 862.546583 249.744999 
L 865.749323 246.577662 
L 875.357542 243.060775 
L 881.763022 229.627769 
L 884.965762 223.817923 
L 888.168502 217.29516 
L 900.979461 212.506086 
L 907.384941 202.726873 
L 910.587681 197.064123 
L 920.1959 190.484513 
L 923.39864 184.404911 
L 926.60138 179.248014 
L 929.80412 175.043516 
L 933.00686 171.782124 
L 942.615079 170.016172 
L 945.817819 168.481716 
L 949.020559 167.283334 
L 952.223299 164.353999 
L 955.426039 162.273458 
L 965.034258 158.726867 
L 968.236998 157.860583 
L 971.439738 157.529028 
L 974.642478 156.55975 
L 977.845218 156.080746 
L 987.453437 159.491284 
L 990.656177 160.288746 
L 993.858917 160.105806 
L 1000.264397 158.001873 
L 1009.872616 158.606533 
L 1013.075356 159.696277 
L 1016.278096 160.962621 
L 1019.480836 161.954598 
L 1022.683576 163.729422 
L 1032.291796 164.792544 
L 1035.494535 165.474039 
L 1038.697275 166.778015 
L 1041.900015 168.229134 
L 1045.102755 169.84957 
L 1054.710975 170.094661 
L 1057.913714 171.02189 
L 1061.116454 170.287058 
L 1064.319194 165.01855 
L 1067.521934 160.486964 
L 1077.130154 156.730647 
L 1080.332893 152.925066 
L 1083.535633 148.496072 
L 1086.738373 144.38035 
L 1089.941113 138.892922 
L 1099.549333 133.566323 
L 1102.752073 130.411216 
L 1105.954812 129.926257 
L 1109.157552 128.365965 
L 1112.360292 128.021527 
L 1121.968512 127.981231 
L 1125.171252 128.36082 
L 1131.576731 128.123025 
L 1134.779471 128.724263 
L 1144.387691 136.675709 
L 1147.590431 141.61779 
L 1150.79317 147.337338 
L 1157.19865 155.704884 
L 1166.80687 161.864577 
L 1176.415089 178.615803 
L 1179.617829 184.945079 
L 1189.226049 191.847359 
L 1192.428789 199.078128 
L 1195.631529 205.593121 
L 1198.834268 212.744826 
L 1202.037008 221.295661 
L 1211.645228 230.524475 
L 1218.050708 246.690869 
L 1221.253447 252.732309 
L 1224.456187 258.53302 
L 1234.064407 265.463564 
L 1237.267147 270.368332 
L 1240.469887 275.683298 
L 1243.672627 281.278951 
L 1256.483586 285.70857 
L 1259.686326 289.815807 
L 1262.889066 294.427289 
L 1266.091806 297.016789 
L 1269.294545 300.119411 
L 1269.294545 300.119411 
" clip-path="url(#p7679fe630e)" style="fill: none; stroke: #ff7f0e; stroke-width: 1.5; stroke-linecap: square"/>
   </g>
   <g id="line2d_9">
    <path d="M 113.105455 241.749356 
L 116.308194 230.115025 
L 119.510934 232.945305 
L 122.713674 232.389243 
L 125.916414 232.055853 
L 135.524634 233.517024 
L 138.727373 235.038295 
L 141.930113 236.989146 
L 145.132853 238.14385 
L 148.335593 241.229805 
L 161.146553 242.979153 
L 164.349292 242.290227 
L 167.552032 243.21371 
L 170.754772 245.848515 
L 180.362992 249.194361 
L 183.565732 252.106353 
L 186.768471 255.747794 
L 189.971211 258.739887 
L 193.173951 262.270845 
L 202.782171 264.823345 
L 205.984911 265.862586 
L 209.18765 267.372855 
L 212.39039 267.7112 
L 215.59313 267.731689 
L 225.20135 266.979519 
L 228.40409 265.520274 
L 231.60683 263.18392 
L 234.809569 260.399097 
L 238.012309 257.362309 
L 250.823269 255.065034 
L 254.026009 254.194008 
L 257.228748 254.592591 
L 260.431488 255.123523 
L 273.242448 256.662677 
L 276.445188 257.201633 
L 279.647927 258.696671 
L 282.850667 260.420042 
L 292.458887 260.597229 
L 295.661627 260.527608 
L 298.864367 261.230798 
L 302.067107 263.271762 
L 305.269846 264.847461 
L 314.878066 267.683675 
L 318.080806 269.098094 
L 321.283546 270.344896 
L 324.486286 270.328729 
L 327.689025 269.91544 
L 337.297245 268.85303 
L 340.499985 267.312219 
L 343.702725 266.759173 
L 346.905465 267.472604 
L 350.108204 268.032668 
L 359.716424 268.667691 
L 362.919164 269.581445 
L 366.121904 270.966051 
L 369.324644 272.625855 
L 372.527384 273.895826 
L 382.135603 274.846113 
L 385.338343 275.971382 
L 388.541083 276.718865 
L 391.743823 277.110203 
L 404.554782 277.566678 
L 407.757522 278.134777 
L 410.960262 279.277147 
L 414.163002 279.9979 
L 417.365742 281.289079 
L 426.973961 282.239654 
L 430.176701 284.197091 
L 433.379441 285.672924 
L 436.582181 286.966493 
L 439.784921 288.013864 
L 449.39314 289.317117 
L 455.79862 291.970981 
L 462.2041 294.347318 
L 471.812319 294.758155 
L 475.015059 295.022572 
L 478.217799 294.748315 
L 481.420539 293.55975 
L 484.623279 293.141625 
L 497.434238 293.125877 
L 503.839718 292.736369 
L 507.042458 292.331457 
L 516.650677 292.717463 
L 519.853417 293.079569 
L 523.056157 293.988868 
L 526.258897 294.547984 
L 529.461637 294.796295 
L 539.069856 294.957432 
L 542.272596 294.780734 
L 545.475336 294.746877 
L 551.880816 294.318733 
L 561.489036 293.527097 
L 564.691775 292.698781 
L 571.097255 290.434553 
L 574.299995 289.495099 
L 587.110954 288.714019 
L 590.313694 287.815597 
L 593.516434 287.221398 
L 596.719174 286.368834 
L 606.327394 285.590732 
L 609.530133 284.797986 
L 612.732873 283.738434 
L 619.138353 280.77712 
L 628.746573 279.220559 
L 635.152052 277.689753 
L 641.557532 275.363867 
L 651.165752 274.645774 
L 654.368492 273.923599 
L 660.773971 271.991839 
L 663.976711 270.735161 
L 673.584931 269.4071 
L 676.787671 268.380529 
L 679.99041 267.176718 
L 683.19315 266.121171 
L 686.39589 264.813646 
L 699.20685 263.730365 
L 705.612329 261.029954 
L 708.815069 260.171699 
L 718.423289 259.203557 
L 721.626029 258.327854 
L 728.031508 257.249806 
L 731.234248 256.770524 
L 744.045208 256.588829 
L 750.450687 255.550505 
L 753.653427 254.908265 
L 763.261647 254.457155 
L 766.464387 254.520572 
L 772.869867 254.184202 
L 776.072606 254.344468 
L 785.680826 254.624911 
L 788.883566 254.899157 
L 795.289046 254.990551 
L 798.491785 255.164756 
L 808.100005 255.433463 
L 811.302745 255.730849 
L 814.505485 255.60797 
L 820.910964 255.893679 
L 840.127404 255.209625 
L 843.330144 255.279286 
L 852.938363 255.096376 
L 856.141103 254.612996 
L 859.343843 254.264443 
L 862.546583 253.649123 
L 865.749323 252.425727 
L 875.357542 251.017693 
L 878.560282 248.47782 
L 881.763022 245.7187 
L 884.965762 243.181949 
L 888.168502 240.291528 
L 900.979461 237.880789 
L 907.384941 232.755512 
L 910.587681 229.81259 
L 920.1959 226.463958 
L 923.39864 223.182036 
L 926.60138 220.126965 
L 929.80412 217.331819 
L 933.00686 214.8161 
L 942.615079 212.792185 
L 949.020559 209.050709 
L 952.223299 206.667485 
L 955.426039 204.559335 
L 965.034258 201.946476 
L 968.236998 200.227725 
L 971.439738 198.721542 
L 974.642478 197.03408 
L 977.845218 195.539406 
L 987.453437 195.419587 
L 990.656177 194.514592 
L 993.858917 193.327483 
L 1000.264397 190.433504 
L 1009.872616 189.577046 
L 1013.075356 188.935846 
L 1019.480836 187.853137 
L 1022.683576 187.614696 
L 1032.291796 187.197034 
L 1035.494535 186.696458 
L 1041.900015 186.303696 
L 1045.102755 186.268904 
L 1057.913714 185.618054 
L 1061.116454 184.885778 
L 1064.319194 182.591148 
L 1067.521934 180.452928 
L 1077.130154 178.503372 
L 1080.332893 176.477608 
L 1086.738373 171.917893 
L 1089.941113 169.12368 
L 1099.549333 166.296579 
L 1102.752073 164.13566 
L 1105.954812 162.862068 
L 1109.157552 161.243926 
L 1112.360292 160.046575 
L 1121.968512 158.982006 
L 1128.373991 157.095183 
L 1131.576731 156.093233 
L 1134.779471 155.382755 
L 1144.387691 157.247119 
L 1147.590431 158.274568 
L 1150.79317 159.698205 
L 1157.19865 162.1748 
L 1166.80687 164.084145 
L 1170.00961 165.94952 
L 1176.415089 170.004753 
L 1179.617829 172.467056 
L 1189.226049 175.253507 
L 1198.834268 184.476277 
L 1202.037008 188.348232 
L 1211.645228 192.607084 
L 1218.050708 200.794335 
L 1224.456187 207.963475 
L 1234.064407 212.008605 
L 1237.267147 215.45073 
L 1243.672627 222.865201 
L 1256.483586 226.30624 
L 1259.686326 229.66866 
L 1262.889066 233.229112 
L 1266.091806 236.12775 
L 1269.294545 239.192917 
L 1269.294545 239.192917 
" clip-path="url(#p7679fe630e)" style="fill: none; stroke: #2ca02c; stroke-width: 1.5; stroke-linecap: square"/>
   </g>
   <g id="patch_3">
    <path d="M 55.296 351 
L 55.296 70.2 
" style="fill: none; stroke: #000000; stroke-width: 0.8; stroke-linejoin: miter; stroke-linecap: square"/>
   </g>
   <g id="patch_4">
    <path d="M 1327.104 351 
L 1327.104 70.2 
" style="fill: none; stroke: #000000; stroke-width: 0.8; stroke-linejoin: miter; stroke-linecap: square"/>
   </g>
   <g id="patch_5">
    <path d="M 55.296 351 
L 1327.104 351 
" style="fill: none; stroke: #000000; stroke-width: 0.8; stroke-linejoin: miter; stroke-linecap: square"/>
   </g>
   <g id="patch_6">
    <path d="M 55.296 70.2 
L 1327.104 70.2 
" style="fill: none; stroke: #000000; stroke-width: 0.8; stroke-linejoin: miter; stroke-linecap: square"/>
   </g>
   <g id="legend_1">
    <g id="patch_7">
     <path d="M 62.296 122.234375 
L 128.8085 122.234375 
Q 130.8085 122.234375 130.8085 120.234375 
L 130.8085 77.2 
Q 130.8085 75.2 128.8085 75.2 
L 62.296 75.2 
Q 60.296 75.2 60.296 77.2 
L 60.296 120.234375 
Q 60.296 122.234375 62.296 122.234375 
z
" style="fill: #ffffff; opacity: 0.8; stroke: #cccccc; stroke-linejoin: miter"/>
    </g>
    <g id="line2d_10">
     <path d="M 64.296 83.298437 
L 74.296 83.298437 
L 84.296 83.298437 
" style="fill: none; stroke: #1f77b4; stroke-opacity: 0.35; stroke-width: 1.5; stroke-linecap: square"/>
    </g>
    <g id="text_8">
     <!-- YNDX -->
     <g transform="translate(92.296 86.798437) scale(0.1 -0.1)">
      <defs>
       <path id="DejaVuSans-59" d="M -13 4666 
L 666 4666 
L 1959 2747 
L 3244 4666 
L 3922 4666 
L 2272 2222 
L 2272 0 
L 1638 0 
L 1638 2222 
L -13 4666 
z
" transform="scale(0.015625)"/>
       <path id="DejaVuSans-4e" d="M 628 4666 
L 1478 4666 
L 3547 763 
L 3547 4666 
L 4159 4666 
L 4159 0 
L 3309 0 
L 1241 3903 
L 1241 0 
L 628 0 
L 628 4666 
z
" transform="scale(0.015625)"/>
       <path id="DejaVuSans-44" d="M 1259 4147 
L 1259 519 
L 2022 519 
Q 2988 519 3436 956 
Q 3884 1394 3884 2338 
Q 3884 3275 3436 3711 
Q 2988 4147 2022 4147 
L 1259 4147 
z
M 628 4666 
L 1925 4666 
Q 3281 4666 3915 4102 
Q 4550 3538 4550 2338 
Q 4550 1131 3912 565 
Q 3275 0 1925 0 
L 628 0 
L 628 4666 
z
" transform="scale(0.015625)"/>
       <path id="DejaVuSans-58" d="M 403 4666 
L 1081 4666 
L 2241 2931 
L 3406 4666 
L 4084 4666 
L 2584 2425 
L 4184 0 
L 3506 0 
L 2194 1984 
L 872 0 
L 191 0 
L 1856 2491 
L 403 4666 
z
" transform="scale(0.015625)"/>
      </defs>
      <use xlink:href="#DejaVuSans-59"/>
      <use xlink:href="#DejaVuSans-4e" x="61.083984"/>
      <use xlink:href="#DejaVuSans-44" x="135.888672"/>
      <use xlink:href="#DejaVuSans-58" x="212.890625"/>
     </g>
    </g>
    <g id="line2d_11">
     <path d="M 64.296 97.976562 
L 74.296 97.976562 
L 84.296 97.976562 
" style="fill: none; stroke: #ff7f0e; stroke-width: 1.5; stroke-linecap: square"/>
    </g>
    <g id="text_9">
     <!-- EMA30 -->
     <g transform="translate(92.296 101.476562) scale(0.1 -0.1)">
      <defs>
       <path id="DejaVuSans-45" d="M 628 4666 
L 3578 4666 
L 3578 4134 
L 1259 4134 
L 1259 2753 
L 3481 2753 
L 3481 2222 
L 1259 2222 
L 1259 531 
L 3634 531 
L 3634 0 
L 628 0 
L 628 4666 
z
" transform="scale(0.015625)"/>
       <path id="DejaVuSans-4d" d="M 628 4666 
L 1569 4666 
L 2759 1491 
L 3956 4666 
L 4897 4666 
L 4897 0 
L 4281 0 
L 4281 4097 
L 3078 897 
L 2444 897 
L 1241 4097 
L 1241 0 
L 628 0 
L 628 4666 
z
" transform="scale(0.015625)"/>
       <path id="DejaVuSans-41" d="M 2188 4044 
L 1331 1722 
L 3047 1722 
L 2188 4044 
z
M 1831 4666 
L 2547 4666 
L 4325 0 
L 3669 0 
L 3244 1197 
L 1141 1197 
L 716 0 
L 50 0 
L 1831 4666 
z
" transform="scale(0.015625)"/>
       <path id="DejaVuSans-33" d="M 2597 2516 
Q 3050 2419 3304 2112 
Q 3559 1806 3559 1356 
Q 3559 666 3084 287 
Q 2609 -91 1734 -91 
Q 1441 -91 1130 -33 
Q 819 25 488 141 
L 488 750 
Q 750 597 1062 519 
Q 1375 441 1716 441 
Q 2309 441 2620 675 
Q 2931 909 2931 1356 
Q 2931 1769 2642 2001 
Q 2353 2234 1838 2234 
L 1294 2234 
L 1294 2753 
L 1863 2753 
Q 2328 2753 2575 2939 
Q 2822 3125 2822 3475 
Q 2822 3834 2567 4026 
Q 2313 4219 1838 4219 
Q 1578 4219 1281 4162 
Q 984 4106 628 3988 
L 628 4550 
Q 988 4650 1302 4700 
Q 1616 4750 1894 4750 
Q 2613 4750 3031 4423 
Q 3450 4097 3450 3541 
Q 3450 3153 3228 2886 
Q 3006 2619 2597 2516 
z
" transform="scale(0.015625)"/>
      </defs>
      <use xlink:href="#DejaVuSans-45"/>
      <use xlink:href="#DejaVuSans-4d" x="63.183594"/>
      <use xlink:href="#DejaVuSans-41" x="149.462891"/>
      <use xlink:href="#DejaVuSans-33" x="217.871094"/>
      <use xlink:href="#DejaVuSans-30" x="281.494141"/>
     </g>
    </g>
    <g id="line2d_12">
     <path d="M 64.296 112.654688 
L 74.296 112.654688 
L 84.296 112.654688 
" style="fill: none; stroke: #2ca02c; stroke-width: 1.5; stroke-linecap: square"/>
    </g>
    <g id="text_10">
     <!-- EMA60 -->
     <g transform="translate(92.296 116.154688) scale(0.1 -0.1)">
      <use xlink:href="#DejaVuSans-45"/>
      <use xlink:href="#DejaVuSans-4d" x="63.183594"/>
      <use xlink:href="#DejaVuSans-41" x="149.462891"/>
      <use xlink:href="#DejaVuSans-36" x="217.871094"/>
      <use xlink:href="#DejaVuSans-30" x="281.494141"/>
     </g>
    </g>
   </g>
  </g>
  <g id="axes_2">
   <g id="patch_8">
    <path d="M 55.296 631.8 
L 1327.104 631.8 
L 1327.104 351 
L 55.296 351 
z
" style="fill: #ffffff"/>
   </g>
   <g id="matplotlib.axis_2">
    <g id="xtick_1">
     <g id="line2d_13">
      <defs>
       <path id="mcec4422a0d" d="M 0 0 
L 0 3.5 
" style="stroke: #000000; stroke-width: 0.8"/>
      </defs>
      <g>
       <use xlink:href="#mcec4422a0d" x="103.497235" y="631.8" style="stroke: #000000; stroke-width: 0.8"/>
      </g>
     </g>
     <g id="text_11">
      <!-- 01-01-2021 -->
      <g transform="translate(52.127784 674.438252) rotate(-30) scale(0.1 -0.1)">
       <defs>
        <path id="DejaVuSans-31" d="M 794 531 
L 1825 531 
L 1825 4091 
L 703 3866 
L 703 4441 
L 1819 4666 
L 2450 4666 
L 2450 531 
L 3481 531 
L 3481 0 
L 794 0 
L 794 531 
z
" transform="scale(0.015625)"/>
        <path id="DejaVuSans-2d" d="M 313 2009 
L 1997 2009 
L 1997 1497 
L 313 1497 
L 313 2009 
z
" transform="scale(0.015625)"/>
        <path id="DejaVuSans-32" d="M 1228 531 
L 3431 531 
L 3431 0 
L 469 0 
L 469 531 
Q 828 903 1448 1529 
Q 2069 2156 2228 2338 
Q 2531 2678 2651 2914 
Q 2772 3150 2772 3378 
Q 2772 3750 2511 3984 
Q 2250 4219 1831 4219 
Q 1534 4219 1204 4116 
Q 875 4013 500 3803 
L 500 4441 
Q 881 4594 1212 4672 
Q 1544 4750 1819 4750 
Q 2544 4750 2975 4387 
Q 3406 4025 3406 3419 
Q 3406 3131 3298 2873 
Q 3191 2616 2906 2266 
Q 2828 2175 2409 1742 
Q 1991 1309 1228 531 
z
" transform="scale(0.015625)"/>
       </defs>
       <use xlink:href="#DejaVuSans-30"/>
       <use xlink:href="#DejaVuSans-31" x="63.623047"/>
       <use xlink:href="#DejaVuSans-2d" x="127.246094"/>
       <use xlink:href="#DejaVuSans-30" x="163.330078"/>
       <use xlink:href="#DejaVuSans-31" x="226.953125"/>
       <use xlink:href="#DejaVuSans-2d" x="290.576172"/>
       <use xlink:href="#DejaVuSans-32" x="326.660156"/>
       <use xlink:href="#DejaVuSans-30" x="390.283203"/>
       <use xlink:href="#DejaVuSans-32" x="453.90625"/>
       <use xlink:href="#DejaVuSans-31" x="517.529297"/>
      </g>
     </g>
    </g>
    <g id="xtick_2">
     <g id="line2d_14">
      <g>
       <use xlink:href="#mcec4422a0d" x="292.458887" y="631.8" style="stroke: #000000; stroke-width: 0.8"/>
      </g>
     </g>
     <g id="text_12">
      <!-- 01-03-2021 -->
      <g transform="translate(241.089436 674.438252) rotate(-30) scale(0.1 -0.1)">
       <use xlink:href="#DejaVuSans-30"/>
       <use xlink:href="#DejaVuSans-31" x="63.623047"/>
       <use xlink:href="#DejaVuSans-2d" x="127.246094"/>
       <use xlink:href="#DejaVuSans-30" x="163.330078"/>
       <use xlink:href="#DejaVuSans-33" x="226.953125"/>
       <use xlink:href="#DejaVuSans-2d" x="290.576172"/>
       <use xlink:href="#DejaVuSans-32" x="326.660156"/>
       <use xlink:href="#DejaVuSans-30" x="390.283203"/>
       <use xlink:href="#DejaVuSans-32" x="453.90625"/>
       <use xlink:href="#DejaVuSans-31" x="517.529297"/>
      </g>
     </g>
    </g>
    <g id="xtick_3">
     <g id="line2d_15">
      <g>
       <use xlink:href="#mcec4422a0d" x="487.826019" y="631.8" style="stroke: #000000; stroke-width: 0.8"/>
      </g>
     </g>
     <g id="text_13">
      <!-- 01-05-2021 -->
      <g transform="translate(436.456567 674.438252) rotate(-30) scale(0.1 -0.1)">
       <use xlink:href="#DejaVuSans-30"/>
       <use xlink:href="#DejaVuSans-31" x="63.623047"/>
       <use xlink:href="#DejaVuSans-2d" x="127.246094"/>
       <use xlink:href="#DejaVuSans-30" x="163.330078"/>
       <use xlink:href="#DejaVuSans-35" x="226.953125"/>
       <use xlink:href="#DejaVuSans-2d" x="290.576172"/>
       <use xlink:href="#DejaVuSans-32" x="326.660156"/>
       <use xlink:href="#DejaVuSans-30" x="390.283203"/>
       <use xlink:href="#DejaVuSans-32" x="453.90625"/>
       <use xlink:href="#DejaVuSans-31" x="517.529297"/>
      </g>
     </g>
    </g>
    <g id="xtick_4">
     <g id="line2d_16">
      <g>
       <use xlink:href="#mcec4422a0d" x="683.19315" y="631.8" style="stroke: #000000; stroke-width: 0.8"/>
      </g>
     </g>
     <g id="text_14">
      <!-- 01-07-2021 -->
      <g transform="translate(631.823699 674.438252) rotate(-30) scale(0.1 -0.1)">
       <use xlink:href="#DejaVuSans-30"/>
       <use xlink:href="#DejaVuSans-31" x="63.623047"/>
       <use xlink:href="#DejaVuSans-2d" x="127.246094"/>
       <use xlink:href="#DejaVuSans-30" x="163.330078"/>
       <use xlink:href="#DejaVuSans-37" x="226.953125"/>
       <use xlink:href="#DejaVuSans-2d" x="290.576172"/>
       <use xlink:href="#DejaVuSans-32" x="326.660156"/>
       <use xlink:href="#DejaVuSans-30" x="390.283203"/>
       <use xlink:href="#DejaVuSans-32" x="453.90625"/>
       <use xlink:href="#DejaVuSans-31" x="517.529297"/>
      </g>
     </g>
    </g>
    <g id="xtick_5">
     <g id="line2d_17">
      <g>
       <use xlink:href="#mcec4422a0d" x="881.763022" y="631.8" style="stroke: #000000; stroke-width: 0.8"/>
      </g>
     </g>
     <g id="text_15">
      <!-- 01-09-2021 -->
      <g transform="translate(830.393571 674.438252) rotate(-30) scale(0.1 -0.1)">
       <defs>
        <path id="DejaVuSans-39" d="M 703 97 
L 703 672 
Q 941 559 1184 500 
Q 1428 441 1663 441 
Q 2288 441 2617 861 
Q 2947 1281 2994 2138 
Q 2813 1869 2534 1725 
Q 2256 1581 1919 1581 
Q 1219 1581 811 2004 
Q 403 2428 403 3163 
Q 403 3881 828 4315 
Q 1253 4750 1959 4750 
Q 2769 4750 3195 4129 
Q 3622 3509 3622 2328 
Q 3622 1225 3098 567 
Q 2575 -91 1691 -91 
Q 1453 -91 1209 -44 
Q 966 3 703 97 
z
M 1959 2075 
Q 2384 2075 2632 2365 
Q 2881 2656 2881 3163 
Q 2881 3666 2632 3958 
Q 2384 4250 1959 4250 
Q 1534 4250 1286 3958 
Q 1038 3666 1038 3163 
Q 1038 2656 1286 2365 
Q 1534 2075 1959 2075 
z
" transform="scale(0.015625)"/>
       </defs>
       <use xlink:href="#DejaVuSans-30"/>
       <use xlink:href="#DejaVuSans-31" x="63.623047"/>
       <use xlink:href="#DejaVuSans-2d" x="127.246094"/>
       <use xlink:href="#DejaVuSans-30" x="163.330078"/>
       <use xlink:href="#DejaVuSans-39" x="226.953125"/>
       <use xlink:href="#DejaVuSans-2d" x="290.576172"/>
       <use xlink:href="#DejaVuSans-32" x="326.660156"/>
       <use xlink:href="#DejaVuSans-30" x="390.283203"/>
       <use xlink:href="#DejaVuSans-32" x="453.90625"/>
       <use xlink:href="#DejaVuSans-31" x="517.529297"/>
      </g>
     </g>
    </g>
    <g id="xtick_6">
     <g id="line2d_18">
      <g>
       <use xlink:href="#mcec4422a0d" x="1077.130154" y="631.8" style="stroke: #000000; stroke-width: 0.8"/>
      </g>
     </g>
     <g id="text_16">
      <!-- 01-11-2021 -->
      <g transform="translate(1025.760702 674.438252) rotate(-30) scale(0.1 -0.1)">
       <use xlink:href="#DejaVuSans-30"/>
       <use xlink:href="#DejaVuSans-31" x="63.623047"/>
       <use xlink:href="#DejaVuSans-2d" x="127.246094"/>
       <use xlink:href="#DejaVuSans-31" x="163.330078"/>
       <use xlink:href="#DejaVuSans-31" x="226.953125"/>
       <use xlink:href="#DejaVuSans-2d" x="290.576172"/>
       <use xlink:href="#DejaVuSans-32" x="326.660156"/>
       <use xlink:href="#DejaVuSans-30" x="390.283203"/>
       <use xlink:href="#DejaVuSans-32" x="453.90625"/>
       <use xlink:href="#DejaVuSans-31" x="517.529297"/>
      </g>
     </g>
    </g>
    <g id="xtick_7">
     <g id="line2d_19">
      <g>
       <use xlink:href="#mcec4422a0d" x="1272.497285" y="631.8" style="stroke: #000000; stroke-width: 0.8"/>
      </g>
     </g>
     <g id="text_17">
      <!-- 01-01-2022 -->
      <g transform="translate(1221.127834 674.438252) rotate(-30) scale(0.1 -0.1)">
       <use xlink:href="#DejaVuSans-30"/>
       <use xlink:href="#DejaVuSans-31" x="63.623047"/>
       <use xlink:href="#DejaVuSans-2d" x="127.246094"/>
       <use xlink:href="#DejaVuSans-30" x="163.330078"/>
       <use xlink:href="#DejaVuSans-31" x="226.953125"/>
       <use xlink:href="#DejaVuSans-2d" x="290.576172"/>
       <use xlink:href="#DejaVuSans-32" x="326.660156"/>
       <use xlink:href="#DejaVuSans-30" x="390.283203"/>
       <use xlink:href="#DejaVuSans-32" x="453.90625"/>
       <use xlink:href="#DejaVuSans-32" x="517.529297"/>
      </g>
     </g>
    </g>
    <g id="text_18">
     <!-- Дата -->
     <g transform="translate(678.253125 687.837752) scale(0.1 -0.1)">
      <defs>
       <path id="DejaVuSans-414" d="M 1459 531 
L 3522 531 
L 3522 4134 
L 2006 4134 
L 2006 3472 
Q 2006 1913 1656 878 
Q 1584 666 1459 531 
z
M 538 531 
Q 956 728 1075 1103 
Q 1378 2066 1378 3784 
L 1378 4666 
L 4153 4666 
L 4153 531 
L 4684 531 
L 4684 -1003 
L 4153 -1003 
L 4153 0 
L 847 0 
L 847 -1003 
L 316 -1003 
L 316 531 
L 538 531 
z
" transform="scale(0.015625)"/>
      </defs>
      <use xlink:href="#DejaVuSans-414"/>
      <use xlink:href="#DejaVuSans-430" x="78.125"/>
      <use xlink:href="#DejaVuSans-442" x="139.404297"/>
      <use xlink:href="#DejaVuSans-430" x="197.65625"/>
     </g>
    </g>
   </g>
   <g id="matplotlib.axis_3">
    <g id="ytick_7">
     <g id="line2d_20">
      <g>
       <use xlink:href="#m6806f439a2" x="55.296" y="615.142696" style="stroke: #000000; stroke-width: 0.8"/>
      </g>
     </g>
     <g id="text_19">
      <!-- 60 -->
      <g transform="translate(35.571 618.941915) scale(0.1 -0.1)">
       <use xlink:href="#DejaVuSans-36"/>
       <use xlink:href="#DejaVuSans-30" x="63.623047"/>
      </g>
     </g>
    </g>
    <g id="ytick_8">
     <g id="line2d_21">
      <g>
       <use xlink:href="#m6806f439a2" x="55.296" y="567.658932" style="stroke: #000000; stroke-width: 0.8"/>
      </g>
     </g>
     <g id="text_20">
      <!-- 65 -->
      <g transform="translate(35.571 571.458151) scale(0.1 -0.1)">
       <use xlink:href="#DejaVuSans-36"/>
       <use xlink:href="#DejaVuSans-35" x="63.623047"/>
      </g>
     </g>
    </g>
    <g id="ytick_9">
     <g id="line2d_22">
      <g>
       <use xlink:href="#m6806f439a2" x="55.296" y="520.175168" style="stroke: #000000; stroke-width: 0.8"/>
      </g>
     </g>
     <g id="text_21">
      <!-- 70 -->
      <g transform="translate(35.571 523.974386) scale(0.1 -0.1)">
       <use xlink:href="#DejaVuSans-37"/>
       <use xlink:href="#DejaVuSans-30" x="63.623047"/>
      </g>
     </g>
    </g>
    <g id="ytick_10">
     <g id="line2d_23">
      <g>
       <use xlink:href="#m6806f439a2" x="55.296" y="472.691403" style="stroke: #000000; stroke-width: 0.8"/>
      </g>
     </g>
     <g id="text_22">
      <!-- 75 -->
      <g transform="translate(35.571 476.490622) scale(0.1 -0.1)">
       <use xlink:href="#DejaVuSans-37"/>
       <use xlink:href="#DejaVuSans-35" x="63.623047"/>
      </g>
     </g>
    </g>
    <g id="ytick_11">
     <g id="line2d_24">
      <g>
       <use xlink:href="#m6806f439a2" x="55.296" y="425.207639" style="stroke: #000000; stroke-width: 0.8"/>
      </g>
     </g>
     <g id="text_23">
      <!-- 80 -->
      <g transform="translate(35.571 429.006858) scale(0.1 -0.1)">
       <use xlink:href="#DejaVuSans-38"/>
       <use xlink:href="#DejaVuSans-30" x="63.623047"/>
      </g>
     </g>
    </g>
    <g id="ytick_12">
     <g id="line2d_25">
      <g>
       <use xlink:href="#m6806f439a2" x="55.296" y="377.723875" style="stroke: #000000; stroke-width: 0.8"/>
      </g>
     </g>
     <g id="text_24">
      <!-- 85 -->
      <g transform="translate(35.571 381.523093) scale(0.1 -0.1)">
       <use xlink:href="#DejaVuSans-38"/>
       <use xlink:href="#DejaVuSans-35" x="63.623047"/>
      </g>
     </g>
    </g>
    <g id="text_25">
     <!-- Цена закрытия -->
     <g transform="translate(29.491312 531.314844) rotate(-90) scale(0.1 -0.1)">
      <use xlink:href="#DejaVuSans-426"/>
      <use xlink:href="#DejaVuSans-435" x="77.636719"/>
      <use xlink:href="#DejaVuSans-43d" x="139.160156"/>
      <use xlink:href="#DejaVuSans-430" x="204.541016"/>
      <use xlink:href="#DejaVuSans-20" x="265.820312"/>
      <use xlink:href="#DejaVuSans-437" x="297.607422"/>
      <use xlink:href="#DejaVuSans-430" x="350.78125"/>
      <use xlink:href="#DejaVuSans-43a" x="412.060547"/>
      <use xlink:href="#DejaVuSans-440" x="472.460938"/>
      <use xlink:href="#DejaVuSans-44b" x="535.9375"/>
      <use xlink:href="#DejaVuSans-442" x="614.892578"/>
      <use xlink:href="#DejaVuSans-438" x="673.144531"/>
      <use xlink:href="#DejaVuSans-44f" x="738.134766"/>
     </g>
    </g>
   </g>
   <g id="line2d_26">
    <path d="M 113.105455 522.549356 
L 116.308194 499.662147 
L 119.510934 519.130519 
L 122.713674 511.628076 
L 125.916414 511.628076 
L 138.727373 523.973883 
L 141.930113 529.766908 
L 145.132853 526.917854 
L 148.335593 545.626468 
L 161.146553 538.408916 
L 164.349292 516.851319 
L 167.552032 532.99577 
L 170.754772 553.983585 
L 180.362992 566.804259 
L 183.565732 566.709271 
L 186.768471 580.954401 
L 189.971211 577.725503 
L 193.173951 590.071275 
L 202.782171 580.954401 
L 205.984911 561.581016 
L 209.18765 570.602902 
L 212.39039 553.698694 
L 215.59313 548.85533 
L 225.20135 535.559933 
L 228.40409 521.979574 
L 231.60683 504.030717 
L 234.809569 492.444667 
L 238.012309 483.802587 
L 250.823269 493.869194 
L 257.228748 542.967389 
L 260.431488 546.19625 
L 270.039708 558.921937 
L 273.242448 546.006347 
L 276.445188 548.950317 
L 279.647927 570.318011 
L 282.850667 577.250637 
L 292.458887 545.151602 
L 295.661627 539.833443 
L 298.864367 557.307506 
L 302.067107 588.931674 
L 305.269846 580.669473 
L 314.878066 612.19869 
L 318.080806 581.999013 
L 321.283546 579.719813 
L 324.486286 550.754724 
L 327.689025 541.067995 
L 337.297245 524.638653 
L 340.499985 511.533088 
L 343.702725 534.325309 
L 346.905465 565.474647 
L 350.108204 562.435689 
L 359.716424 564.999853 
L 362.919164 572.882175 
L 366.121904 586.08262 
L 369.324644 594.819651 
L 372.527384 586.557486 
L 382.135603 579.624825 
L 385.338343 585.322898 
L 391.743823 567.943823 
L 404.554782 570.128108 
L 407.757522 573.64186 
L 410.960262 589.786384 
L 414.163002 579.624825 
L 417.365742 595.959251 
L 426.973961 588.076965 
L 430.176701 616.757127 
L 433.379441 605.645944 
L 436.582181 602.227107 
L 439.784921 596.81396 
L 449.39314 605.076125 
L 452.59588 607.355362 
L 455.79862 608.400011 
L 459.00136 606.785544 
L 462.2041 606.785544 
L 471.812319 586.747389 
L 475.015059 583.043662 
L 478.217799 568.038811 
L 481.420539 541.732765 
L 484.623279 562.435689 
L 494.231498 572.312321 
L 497.434238 575.066388 
L 500.636978 568.133799 
L 503.839718 568.323702 
L 507.042458 561.865907 
L 516.650677 584.27825 
L 519.853417 583.993359 
L 523.056157 600.232797 
L 526.258897 591.020935 
L 529.461637 582.568831 
L 539.069856 580.289631 
L 542.272596 570.602902 
L 545.475336 574.591594 
L 548.678076 569.653241 
L 551.880816 568.703581 
L 561.489036 551.894288 
L 564.691775 549.994966 
L 567.894515 539.073686 
L 571.097255 540.118334 
L 574.299995 543.537171 
L 587.110954 547.240899 
L 590.313694 542.967389 
L 593.516434 551.039615 
L 596.719174 542.777413 
L 606.327394 544.106953 
L 609.530133 542.872401 
L 612.732873 534.135406 
L 615.935613 521.884586 
L 619.138353 517.705992 
L 628.746573 515.236888 
L 631.949313 538.314 
L 635.152052 535.369958 
L 638.354792 522.169477 
L 641.557532 524.163787 
L 651.165752 534.705188 
L 654.368492 533.850515 
L 657.571231 527.107829 
L 660.773971 523.594005 
L 663.976711 515.1419 
L 673.584931 511.723063 
L 676.787671 519.41541 
L 679.99041 513.052603 
L 683.19315 516.281464 
L 686.39589 507.639457 
L 699.20685 513.052603 
L 702.40959 502.796093 
L 705.612329 503.650838 
L 708.815069 515.996573 
L 718.423289 511.818051 
L 721.626029 513.622385 
L 724.828769 522.074489 
L 728.031508 523.119138 
L 731.234248 523.594005 
L 740.842468 535.844824 
L 744.045208 533.755527 
L 747.247948 522.074489 
L 750.450687 520.839938 
L 753.653427 516.946307 
L 763.261647 522.074489 
L 766.464387 537.174364 
L 769.667127 530.051799 
L 772.869867 530.241703 
L 776.072606 539.833443 
L 785.680826 543.632159 
L 788.883566 543.727147 
L 792.086306 535.464946 
L 795.289046 538.693807 
L 798.491785 541.067995 
L 808.100005 544.106953 
L 811.302745 545.246589 
L 814.505485 532.805866 
L 817.708225 541.92274 
L 820.910964 539.738455 
L 830.519184 524.828556 
L 833.721924 529.007151 
L 836.924664 533.660539 
L 840.127404 536.794485 
L 843.330144 538.124025 
L 852.938363 530.526594 
L 856.141103 521.219816 
L 859.343843 524.828556 
L 862.546583 516.376452 
L 865.749323 497.287959 
L 875.357542 490.450357 
L 878.560282 454.647558 
L 881.763022 445.435697 
L 884.965762 449.424388 
L 888.168502 436.128919 
L 900.979461 447.809885 
L 904.182201 441.542066 
L 907.384941 437.458459 
L 910.587681 424.068003 
L 920.1959 408.778225 
L 923.39864 407.448685 
L 926.60138 411.057498 
L 929.80412 415.900789 
L 933.00686 421.598899 
L 942.615079 434.039622 
L 945.817819 434.704392 
L 949.020559 436.698701 
L 952.223299 417.325317 
L 955.426039 423.308317 
L 965.034258 405.834254 
L 968.236998 430.430882 
L 971.439738 435.179259 
L 974.642478 428.151609 
L 977.845218 432.330204 
L 987.453437 472.691403 
L 990.656177 448.66463 
L 997.061657 429.956015 
L 1000.264397 428.721464 
L 1009.872616 445.150806 
L 1013.075356 450.848843 
L 1016.278096 453.792885 
L 1019.480836 452.178382 
L 1022.683576 461.390244 
L 1032.291796 455.692207 
L 1035.494535 452.748237 
L 1038.697275 459.965789 
L 1041.900015 462.814772 
L 1045.102755 466.043705 
L 1054.710975 453.223031 
L 1057.913714 460.630559 
L 1061.116454 444.106157 
L 1064.319194 395.76772 
L 1067.521934 398.236896 
L 1077.130154 401.845636 
L 1080.332893 397.572053 
L 1083.535633 387.220628 
L 1086.738373 386.080991 
L 1089.941113 367.562352 
L 1099.549333 363.763636 
L 1102.752073 381.237699 
L 1105.954812 406.119145 
L 1109.157552 394.343192 
L 1112.360292 405.549363 
L 1121.968512 408.398418 
L 1125.171252 412.766916 
L 1128.373991 408.398418 
L 1131.576731 407.35377 
L 1134.779471 415.23602 
L 1144.387691 493.014449 
L 1147.590431 469.367554 
L 1150.79317 482.473047 
L 1157.19865 515.996573 
L 1166.80687 501.181662 
L 1170.00961 501.751444 
L 1173.21235 509.063984 
L 1176.415089 510.108633 
L 1179.617829 525.873205 
L 1189.226049 538.219013 
L 1192.428789 548.570439 
L 1195.631529 548.285548 
L 1198.834268 561.486028 
L 1202.037008 583.328589 
L 1211.645228 598.998209 
L 1214.847968 596.054239 
L 1218.050708 604.411356 
L 1221.253447 590.925984 
L 1224.456187 594.439772 
L 1234.064407 612.103738 
L 1237.267147 597.763621 
L 1240.469887 606.975483 
L 1243.672627 615.237648 
L 1256.483586 608.58995 
L 1259.686326 609.634562 
L 1262.889066 619.036364 
L 1266.091806 602.417046 
L 1269.294545 610.39432 
L 1269.294545 610.39432 
" clip-path="url(#p350969a36b)" style="fill: none; stroke: #1f77b4; stroke-opacity: 0.35; stroke-width: 1.5; stroke-linecap: square"/>
   </g>
   <g id="line2d_27">
    <path d="M 250.823269 536.123384 
L 254.026009 535.99676 
L 257.228748 537.440268 
L 260.431488 538.342459 
L 270.039708 539.918921 
L 273.242448 541.064864 
L 276.445188 541.99871 
L 282.850667 545.126305 
L 292.458887 545.734097 
L 295.661627 545.540996 
L 298.864367 546.170949 
L 302.067107 548.573628 
L 305.269846 550.162751 
L 314.878066 552.103255 
L 321.283546 553.043431 
L 324.486286 552.036775 
L 327.689025 550.814858 
L 337.297245 548.633771 
L 340.499985 546.319727 
L 343.702725 545.411204 
L 346.905465 545.240262 
L 350.108204 545.531495 
L 359.716424 546.069646 
L 362.919164 547.31372 
L 366.121904 549.450489 
L 372.527384 555.61388 
L 382.135603 558.807955 
L 385.338343 561.856412 
L 388.541083 563.784254 
L 391.743823 564.616802 
L 404.554782 565.41453 
L 407.757522 565.905194 
L 410.960262 567.364529 
L 414.163002 568.387013 
L 417.365742 569.241721 
L 426.973961 569.602598 
L 430.176701 571.989449 
L 433.379441 574.183199 
L 436.582181 575.680519 
L 449.39314 576.756817 
L 452.59588 576.595373 
L 459.00136 578.377597 
L 462.2041 580.245291 
L 471.812319 581.767938 
L 478.217799 585.598295 
L 481.420539 585.84521 
L 484.623279 585.743912 
L 494.231498 586.073133 
L 497.434238 586.408684 
L 500.636978 586.250405 
L 503.839718 585.658441 
L 507.042458 584.559983 
L 516.650677 584.484008 
L 519.853417 584.629626 
L 529.461637 586.095291 
L 539.069856 586.434008 
L 542.272596 586.332709 
L 545.475336 585.826216 
L 548.678076 585.49383 
L 551.880816 584.585308 
L 561.489036 583.379219 
L 567.894515 578.934738 
L 571.097255 576.864446 
L 574.299995 575.088553 
L 587.110954 573.160712 
L 590.313694 571.014446 
L 593.516434 569.102433 
L 596.719174 566.968829 
L 606.327394 564.879542 
L 609.530133 563.417043 
L 615.935613 560.248293 
L 619.138353 559.447401 
L 628.746573 557.874107 
L 631.949313 556.74083 
L 635.152052 555.417616 
L 641.557532 552.413475 
L 651.165752 551.508117 
L 654.368492 549.827193 
L 657.571231 547.931008 
L 663.976711 542.847081 
L 673.584931 540.485555 
L 679.99041 536.538071 
L 686.39589 532.527274 
L 699.20685 530.672242 
L 705.612329 527.490831 
L 708.815069 526.721594 
L 718.423289 525.778251 
L 721.626029 524.781091 
L 724.828769 523.942211 
L 728.031508 523.280603 
L 731.234248 522.365749 
L 740.842468 522.134663 
L 744.045208 521.789615 
L 747.247948 521.096351 
L 750.450687 520.653169 
L 753.653427 520.48856 
L 763.261647 520.634176 
L 766.464387 521.365426 
L 772.869867 520.919077 
L 776.072606 521.507876 
L 795.289046 522.897567 
L 798.491785 523.480034 
L 808.100005 524.445535 
L 811.302745 525.562986 
L 814.505485 526.009335 
L 817.708225 526.971673 
L 820.910964 527.753572 
L 830.519184 528.326542 
L 833.721924 528.858361 
L 840.127404 530.991964 
L 843.330144 531.729546 
L 859.343843 532.698214 
L 862.546583 532.473457 
L 865.749323 531.596589 
L 875.357542 530.08344 
L 881.763022 524.891882 
L 884.965762 522.511363 
L 888.168502 519.81745 
L 900.979461 517.341963 
L 907.384941 511.067776 
L 910.587681 507.528652 
L 920.1959 503.160145 
L 926.60138 494.198374 
L 933.00686 486.309739 
L 942.615079 482.742126 
L 949.020559 475.477111 
L 955.426039 467.673946 
L 965.034258 463.210472 
L 971.439738 456.936287 
L 977.845218 449.93718 
L 987.453437 447.756092 
L 993.858917 442.292295 
L 997.061657 439.129877 
L 1000.264397 436.208044 
L 1009.872616 434.470139 
L 1013.075356 433.150089 
L 1016.278096 433.1216 
L 1019.480836 433.346356 
L 1022.683576 433.745218 
L 1035.494535 434.561939 
L 1038.697275 435.176063 
L 1041.900015 436.021274 
L 1045.102755 437.420464 
L 1054.710975 438.901957 
L 1057.913714 440.674686 
L 1061.116454 441.776308 
L 1067.521934 440.326473 
L 1077.130154 439.25334 
L 1080.332893 438.015595 
L 1083.535633 436.366326 
L 1086.738373 435.324849 
L 1089.941113 433.46665 
L 1099.549333 432.064296 
L 1102.752073 430.424523 
L 1105.954812 429.455853 
L 1109.157552 428.328905 
L 1112.360292 427.436211 
L 1121.968512 425.293111 
L 1125.171252 424.096521 
L 1128.373991 423.070872 
L 1131.576731 422.317464 
L 1134.779471 421.867949 
L 1147.590431 424.080694 
L 1150.79317 425.0367 
L 1157.19865 427.163973 
L 1166.80687 428.490353 
L 1170.00961 430.025661 
L 1173.21235 431.902853 
L 1176.415089 433.574281 
L 1179.617829 435.676229 
L 1189.226049 438.082072 
L 1192.428789 441.260319 
L 1195.631529 444.182152 
L 1198.834268 448.094814 
L 1202.037008 454.346843 
L 1211.645228 461.038887 
L 1214.847968 467.512507 
L 1224.456187 488.142622 
L 1234.064407 496.294001 
L 1240.469887 511.618594 
L 1243.672627 518.589211 
L 1256.483586 525.730769 
L 1262.889066 539.554874 
L 1266.091806 545.876545 
L 1269.294545 552.609742 
L 1269.294545 552.609742 
" clip-path="url(#p350969a36b)" style="fill: none; stroke: #ff7f0e; stroke-width: 1.5; stroke-linecap: square"/>
   </g>
   <g id="line2d_28">
    <path d="M 523.056157 561.035473 
L 526.258897 561.796268 
L 529.461637 562.717454 
L 539.069856 563.396999 
L 548.678076 565.293184 
L 551.880816 565.790181 
L 561.489036 566.036041 
L 564.691775 566.292453 
L 571.097255 566.238638 
L 574.299995 566.535147 
L 587.110954 566.693427 
L 593.516434 566.395862 
L 596.719174 566.129952 
L 606.327394 565.720536 
L 609.530133 565.333279 
L 619.138353 563.567938 
L 635.152052 562.631982 
L 638.354792 562.483199 
L 641.557532 562.507468 
L 651.165752 562.848295 
L 660.773971 564.119806 
L 663.976711 564.079708 
L 673.584931 563.732549 
L 676.787671 563.434984 
L 679.99041 562.925325 
L 683.19315 562.595049 
L 686.39589 562.136039 
L 699.20685 561.499757 
L 702.40959 560.672484 
L 705.612329 560.211364 
L 708.815069 559.94651 
L 718.423289 559.441072 
L 721.626029 558.604302 
L 724.828769 557.953247 
L 728.031508 556.963474 
L 731.234248 556.314529 
L 750.450687 555.384903 
L 753.653427 555.445049 
L 763.261647 555.308929 
L 769.667127 554.634661 
L 776.072606 553.881251 
L 785.680826 553.409579 
L 792.086306 552.27419 
L 798.491785 551.327679 
L 808.100005 550.966802 
L 811.302745 550.714611 
L 820.910964 549.391396 
L 830.519184 548.782549 
L 833.721924 548.038637 
L 836.924664 547.43401 
L 840.127404 546.545536 
L 843.330144 545.795292 
L 852.938363 544.99862 
L 859.343843 543.267046 
L 862.546583 542.256169 
L 865.749323 541.02159 
L 875.357542 539.728977 
L 881.763022 536.468425 
L 888.168502 533.518101 
L 900.979461 532.474514 
L 904.182201 531.131251 
L 907.384941 529.632875 
L 910.587681 527.955115 
L 920.1959 526.184498 
L 933.00686 519.046105 
L 942.615079 517.199514 
L 952.223299 512.03117 
L 955.426039 510.394563 
L 965.034258 508.519482 
L 971.439738 505.488963 
L 977.845218 502.806658 
L 987.453437 502.069077 
L 990.656177 501.052925 
L 993.858917 499.893266 
L 1000.264397 497.320702 
L 1009.872616 496.144159 
L 1019.480836 493.11153 
L 1022.683576 492.30325 
L 1032.291796 491.567779 
L 1045.102755 488.622731 
L 1054.710975 487.856659 
L 1057.913714 487.150735 
L 1061.116454 486.144079 
L 1067.521934 483.177926 
L 1077.130154 481.825167 
L 1083.535633 479.135475 
L 1086.738373 477.653981 
L 1089.941113 476.037423 
L 1099.549333 474.34278 
L 1102.752073 472.938316 
L 1112.360292 469.455118 
L 1121.968512 468.259583 
L 1128.373991 465.98986 
L 1134.779471 463.516484 
L 1144.387691 463.176711 
L 1147.590431 462.438074 
L 1150.79317 461.868269 
L 1157.19865 461.800737 
L 1170.00961 461.41348 
L 1173.21235 461.268918 
L 1176.415089 460.968188 
L 1179.617829 460.921759 
L 1195.631529 461.159178 
L 1198.834268 461.356499 
L 1202.037008 461.888317 
L 1211.645228 462.558366 
L 1224.456187 465.031743 
L 1234.064407 465.811532 
L 1237.267147 466.456256 
L 1243.672627 468.327117 
L 1256.483586 469.159666 
L 1266.091806 471.666809 
L 1269.294545 472.657636 
L 1269.294545 472.657636 
" clip-path="url(#p350969a36b)" style="fill: none; stroke: #2ca02c; stroke-width: 1.5; stroke-linecap: square"/>
   </g>
   <g id="patch_9">
    <path d="M 55.296 631.8 
L 55.296 351 
" style="fill: none; stroke: #000000; stroke-width: 0.8; stroke-linejoin: miter; stroke-linecap: square"/>
   </g>
   <g id="patch_10">
    <path d="M 1327.104 631.8 
L 1327.104 351 
" style="fill: none; stroke: #000000; stroke-width: 0.8; stroke-linejoin: miter; stroke-linecap: square"/>
   </g>
   <g id="patch_11">
    <path d="M 55.296 631.8 
L 1327.104 631.8 
" style="fill: none; stroke: #000000; stroke-width: 0.8; stroke-linejoin: miter; stroke-linecap: square"/>
   </g>
   <g id="patch_12">
    <path d="M 55.296 351 
L 1327.104 351 
" style="fill: none; stroke: #000000; stroke-width: 0.8; stroke-linejoin: miter; stroke-linecap: square"/>
   </g>
   <g id="legend_2">
    <g id="patch_13">
     <path d="M 62.296 403.034375 
L 128.838188 403.034375 
Q 130.838188 403.034375 130.838188 401.034375 
L 130.838188 358 
Q 130.838188 356 128.838188 356 
L 62.296 356 
Q 60.296 356 60.296 358 
L 60.296 401.034375 
Q 60.296 403.034375 62.296 403.034375 
z
" style="fill: #ffffff; opacity: 0.8; stroke: #cccccc; stroke-linejoin: miter"/>
    </g>
    <g id="line2d_29">
     <path d="M 64.296 364.098437 
L 74.296 364.098437 
L 84.296 364.098437 
" style="fill: none; stroke: #1f77b4; stroke-opacity: 0.35; stroke-width: 1.5; stroke-linecap: square"/>
    </g>
    <g id="text_26">
     <!-- YNDX -->
     <g transform="translate(92.296 367.598437) scale(0.1 -0.1)">
      <use xlink:href="#DejaVuSans-59"/>
      <use xlink:href="#DejaVuSans-4e" x="61.083984"/>
      <use xlink:href="#DejaVuSans-44" x="135.888672"/>
      <use xlink:href="#DejaVuSans-58" x="212.890625"/>
     </g>
    </g>
    <g id="line2d_30">
     <path d="M 64.296 378.776563 
L 74.296 378.776563 
L 84.296 378.776563 
" style="fill: none; stroke: #ff7f0e; stroke-width: 1.5; stroke-linecap: square"/>
    </g>
    <g id="text_27">
     <!-- SMA30 -->
     <g transform="translate(92.296 382.276563) scale(0.1 -0.1)">
      <defs>
       <path id="DejaVuSans-53" d="M 3425 4513 
L 3425 3897 
Q 3066 4069 2747 4153 
Q 2428 4238 2131 4238 
Q 1616 4238 1336 4038 
Q 1056 3838 1056 3469 
Q 1056 3159 1242 3001 
Q 1428 2844 1947 2747 
L 2328 2669 
Q 3034 2534 3370 2195 
Q 3706 1856 3706 1288 
Q 3706 609 3251 259 
Q 2797 -91 1919 -91 
Q 1588 -91 1214 -16 
Q 841 59 441 206 
L 441 856 
Q 825 641 1194 531 
Q 1563 422 1919 422 
Q 2459 422 2753 634 
Q 3047 847 3047 1241 
Q 3047 1584 2836 1778 
Q 2625 1972 2144 2069 
L 1759 2144 
Q 1053 2284 737 2584 
Q 422 2884 422 3419 
Q 422 4038 858 4394 
Q 1294 4750 2059 4750 
Q 2388 4750 2728 4690 
Q 3069 4631 3425 4513 
z
" transform="scale(0.015625)"/>
      </defs>
      <use xlink:href="#DejaVuSans-53"/>
      <use xlink:href="#DejaVuSans-4d" x="63.476562"/>
      <use xlink:href="#DejaVuSans-41" x="149.755859"/>
      <use xlink:href="#DejaVuSans-33" x="218.164062"/>
      <use xlink:href="#DejaVuSans-30" x="281.787109"/>
     </g>
    </g>
    <g id="line2d_31">
     <path d="M 64.296 393.454687 
L 74.296 393.454687 
L 84.296 393.454687 
" style="fill: none; stroke: #2ca02c; stroke-width: 1.5; stroke-linecap: square"/>
    </g>
    <g id="text_28">
     <!-- SMA90 -->
     <g transform="translate(92.296 396.954687) scale(0.1 -0.1)">
      <use xlink:href="#DejaVuSans-53"/>
      <use xlink:href="#DejaVuSans-4d" x="63.476562"/>
      <use xlink:href="#DejaVuSans-41" x="149.755859"/>
      <use xlink:href="#DejaVuSans-39" x="218.164062"/>
      <use xlink:href="#DejaVuSans-30" x="281.787109"/>
     </g>
    </g>
   </g>
  </g>
  <g id="text_29">
   <!-- SMA и EMA сглаживание -->
   <g transform="translate(613.422187 23.158125) scale(0.12 -0.12)">
    <defs>
     <path id="DejaVuSans-441" d="M 3122 3366 
L 3122 2828 
Q 2878 2963 2633 3030 
Q 2388 3097 2138 3097 
Q 1578 3097 1268 2742 
Q 959 2388 959 1747 
Q 959 1106 1268 751 
Q 1578 397 2138 397 
Q 2388 397 2633 464 
Q 2878 531 3122 666 
L 3122 134 
Q 2881 22 2623 -34 
Q 2366 -91 2075 -91 
Q 1284 -91 818 406 
Q 353 903 353 1747 
Q 353 2603 823 3093 
Q 1294 3584 2113 3584 
Q 2378 3584 2631 3529 
Q 2884 3475 3122 3366 
z
" transform="scale(0.015625)"/>
     <path id="DejaVuSans-433" d="M 581 0 
L 581 3500 
L 3050 3500 
L 3050 3041 
L 1159 3041 
L 1159 0 
L 581 0 
z
" transform="scale(0.015625)"/>
     <path id="DejaVuSans-43b" d="M 238 0 
L 238 478 
Q 806 566 981 959 
Q 1194 1513 1194 2928 
L 1194 3500 
L 3559 3500 
L 3559 0 
L 2984 0 
L 2984 3041 
L 1769 3041 
L 1769 2694 
Q 1769 1344 1494 738 
Q 1200 91 238 0 
z
" transform="scale(0.015625)"/>
     <path id="DejaVuSans-436" d="M 2597 3500 
L 3169 3500 
L 3169 1856 
L 4697 3500 
L 5366 3500 
L 4109 2153 
L 5547 0 
L 4931 0 
L 3753 1769 
L 3169 1141 
L 3169 0 
L 2597 0 
L 2597 1141 
L 2013 1769 
L 834 0 
L 219 0 
L 1656 2153 
L 400 3500 
L 1069 3500 
L 2597 1856 
L 2597 3500 
z
" transform="scale(0.015625)"/>
     <path id="DejaVuSans-432" d="M 1156 1613 
L 1156 459 
L 1975 459 
Q 2369 459 2575 607 
Q 2781 756 2781 1038 
Q 2781 1319 2575 1466 
Q 2369 1613 1975 1613 
L 1156 1613 
z
M 1156 3041 
L 1156 2072 
L 1913 2072 
Q 2238 2072 2444 2201 
Q 2650 2331 2650 2563 
Q 2650 2794 2444 2917 
Q 2238 3041 1913 3041 
L 1156 3041 
z
M 581 3500 
L 1950 3500 
Q 2566 3500 2897 3275 
Q 3228 3050 3228 2634 
Q 3228 2313 3059 2123 
Q 2891 1934 2559 1888 
Q 2956 1813 3175 1575 
Q 3394 1338 3394 981 
Q 3394 513 3033 256 
Q 2672 0 2003 0 
L 581 0 
L 581 3500 
z
" transform="scale(0.015625)"/>
    </defs>
    <use xlink:href="#DejaVuSans-53"/>
    <use xlink:href="#DejaVuSans-4d" x="63.476562"/>
    <use xlink:href="#DejaVuSans-41" x="149.755859"/>
    <use xlink:href="#DejaVuSans-20" x="218.164062"/>
    <use xlink:href="#DejaVuSans-438" x="249.951172"/>
    <use xlink:href="#DejaVuSans-20" x="314.941406"/>
    <use xlink:href="#DejaVuSans-45" x="346.728516"/>
    <use xlink:href="#DejaVuSans-4d" x="409.912109"/>
    <use xlink:href="#DejaVuSans-41" x="496.191406"/>
    <use xlink:href="#DejaVuSans-20" x="564.599609"/>
    <use xlink:href="#DejaVuSans-441" x="596.386719"/>
    <use xlink:href="#DejaVuSans-433" x="651.367188"/>
    <use xlink:href="#DejaVuSans-43b" x="703.90625"/>
    <use xlink:href="#DejaVuSans-430" x="767.822266"/>
    <use xlink:href="#DejaVuSans-436" x="829.101562"/>
    <use xlink:href="#DejaVuSans-438" x="919.189453"/>
    <use xlink:href="#DejaVuSans-432" x="984.179688"/>
    <use xlink:href="#DejaVuSans-430" x="1043.115234"/>
    <use xlink:href="#DejaVuSans-43d" x="1104.394531"/>
    <use xlink:href="#DejaVuSans-438" x="1169.775391"/>
    <use xlink:href="#DejaVuSans-435" x="1234.765625"/>
   </g>
  </g>
 </g>
 <defs>
  <clipPath id="p7679fe630e">
   <rect x="55.296" y="70.2" width="1271.808" height="280.8"/>
  </clipPath>
  <clipPath id="p350969a36b">
   <rect x="55.296" y="351" width="1271.808" height="280.8"/>
  </clipPath>
 </defs>
</svg>
