<?xml version="1.0" encoding="utf-8" standalone="no"?>
<!DOCTYPE svg PUBLIC "-//W3C//DTD SVG 1.1//EN"
  "http://www.w3.org/Graphics/SVG/1.1/DTD/svg11.dtd">
<svg xmlns:xlink="http://www.w3.org/1999/xlink" width="1382.4pt" height="702pt" viewBox="0 0 1382.4 702" xmlns="http://www.w3.org/2000/svg" version="1.1">
 <metadata>
  <rdf:RDF xmlns:dc="http://purl.org/dc/elements/1.1/" xmlns:cc="http://creativecommons.org/ns#" xmlns:rdf="http://www.w3.org/1999/02/22-rdf-syntax-ns#">
   <cc:Work>
    <dc:type rdf:resource="http://purl.org/dc/dcmitype/StillImage"/>
    <dc:date>2023-05-10T14:26:10.299744</dc:date>
    <dc:format>image/svg+xml</dc:format>
    <dc:creator>
     <cc:Agent>
      <dc:title>Matplotlib v3.7.1, https://matplotlib.org/</dc:title>
     </cc:Agent>
    </dc:creator>
   </cc:Work>
  </rdf:RDF>
 </metadata>
 <defs>
  <style type="text/css">*{stroke-linejoin: round; stroke-linecap: butt}</style>
 </defs>
 <g id="figure_1">
  <g id="patch_1">
   <path d="M 0 702 
L 1382.4 702 
L 1382.4 0 
L 0 0 
z
" style="fill: #ffffff"/>
  </g>
  <g id="axes_1">
   <g id="patch_2">
    <path d="M 55.296 631.8 
L 1327.104 631.8 
L 1327.104 70.2 
L 55.296 70.2 
z
" style="fill: #ffffff"/>
   </g>
   <g id="matplotlib.axis_1">
    <g id="xtick_1">
     <g id="line2d_1">
      <path d="M 127.401456 631.8 
L 127.401456 70.2 
" clip-path="url(#p5f03be8e7e)" style="fill: none; stroke: #b0b0b0; stroke-width: 0.8; stroke-linecap: square"/>
     </g>
     <g id="line2d_2">
      <defs>
       <path id="mbad1e0ccaf" d="M 0 0 
L 0 3.5 
" style="stroke: #000000; stroke-width: 0.8"/>
      </defs>
      <g>
       <use xlink:href="#mbad1e0ccaf" x="127.401456" y="631.8" style="stroke: #000000; stroke-width: 0.8"/>
      </g>
     </g>
     <g id="text_1">
      <!-- 01-04-2020 -->
      <g transform="translate(76.032004 674.438252) rotate(-30) scale(0.1 -0.1)">
       <defs>
        <path id="DejaVuSans-30" d="M 2034 4250 
Q 1547 4250 1301 3770 
Q 1056 3291 1056 2328 
Q 1056 1369 1301 889 
Q 1547 409 2034 409 
Q 2525 409 2770 889 
Q 3016 1369 3016 2328 
Q 3016 3291 2770 3770 
Q 2525 4250 2034 4250 
z
M 2034 4750 
Q 2819 4750 3233 4129 
Q 3647 3509 3647 2328 
Q 3647 1150 3233 529 
Q 2819 -91 2034 -91 
Q 1250 -91 836 529 
Q 422 1150 422 2328 
Q 422 3509 836 4129 
Q 1250 4750 2034 4750 
z
" transform="scale(0.015625)"/>
        <path id="DejaVuSans-31" d="M 794 531 
L 1825 531 
L 1825 4091 
L 703 3866 
L 703 4441 
L 1819 4666 
L 2450 4666 
L 2450 531 
L 3481 531 
L 3481 0 
L 794 0 
L 794 531 
z
" transform="scale(0.015625)"/>
        <path id="DejaVuSans-2d" d="M 313 2009 
L 1997 2009 
L 1997 1497 
L 313 1497 
L 313 2009 
z
" transform="scale(0.015625)"/>
        <path id="DejaVuSans-34" d="M 2419 4116 
L 825 1625 
L 2419 1625 
L 2419 4116 
z
M 2253 4666 
L 3047 4666 
L 3047 1625 
L 3713 1625 
L 3713 1100 
L 3047 1100 
L 3047 0 
L 2419 0 
L 2419 1100 
L 313 1100 
L 313 1709 
L 2253 4666 
z
" transform="scale(0.015625)"/>
        <path id="DejaVuSans-32" d="M 1228 531 
L 3431 531 
L 3431 0 
L 469 0 
L 469 531 
Q 828 903 1448 1529 
Q 2069 2156 2228 2338 
Q 2531 2678 2651 2914 
Q 2772 3150 2772 3378 
Q 2772 3750 2511 3984 
Q 2250 4219 1831 4219 
Q 1534 4219 1204 4116 
Q 875 4013 500 3803 
L 500 4441 
Q 881 4594 1212 4672 
Q 1544 4750 1819 4750 
Q 2544 4750 2975 4387 
Q 3406 4025 3406 3419 
Q 3406 3131 3298 2873 
Q 3191 2616 2906 2266 
Q 2828 2175 2409 1742 
Q 1991 1309 1228 531 
z
" transform="scale(0.015625)"/>
       </defs>
       <use xlink:href="#DejaVuSans-30"/>
       <use xlink:href="#DejaVuSans-31" x="63.623047"/>
       <use xlink:href="#DejaVuSans-2d" x="127.246094"/>
       <use xlink:href="#DejaVuSans-30" x="163.330078"/>
       <use xlink:href="#DejaVuSans-34" x="226.953125"/>
       <use xlink:href="#DejaVuSans-2d" x="290.576172"/>
       <use xlink:href="#DejaVuSans-32" x="326.660156"/>
       <use xlink:href="#DejaVuSans-30" x="390.283203"/>
       <use xlink:href="#DejaVuSans-32" x="453.90625"/>
       <use xlink:href="#DejaVuSans-30" x="517.529297"/>
      </g>
     </g>
    </g>
    <g id="xtick_2">
     <g id="line2d_3">
      <path d="M 290.018468 631.8 
L 290.018468 70.2 
" clip-path="url(#p5f03be8e7e)" style="fill: none; stroke: #b0b0b0; stroke-width: 0.8; stroke-linecap: square"/>
     </g>
     <g id="line2d_4">
      <g>
       <use xlink:href="#mbad1e0ccaf" x="290.018468" y="631.8" style="stroke: #000000; stroke-width: 0.8"/>
      </g>
     </g>
     <g id="text_2">
      <!-- 01-07-2020 -->
      <g transform="translate(238.649017 674.438252) rotate(-30) scale(0.1 -0.1)">
       <defs>
        <path id="DejaVuSans-37" d="M 525 4666 
L 3525 4666 
L 3525 4397 
L 1831 0 
L 1172 0 
L 2766 4134 
L 525 4134 
L 525 4666 
z
" transform="scale(0.015625)"/>
       </defs>
       <use xlink:href="#DejaVuSans-30"/>
       <use xlink:href="#DejaVuSans-31" x="63.623047"/>
       <use xlink:href="#DejaVuSans-2d" x="127.246094"/>
       <use xlink:href="#DejaVuSans-30" x="163.330078"/>
       <use xlink:href="#DejaVuSans-37" x="226.953125"/>
       <use xlink:href="#DejaVuSans-2d" x="290.576172"/>
       <use xlink:href="#DejaVuSans-32" x="326.660156"/>
       <use xlink:href="#DejaVuSans-30" x="390.283203"/>
       <use xlink:href="#DejaVuSans-32" x="453.90625"/>
       <use xlink:href="#DejaVuSans-30" x="517.529297"/>
      </g>
     </g>
    </g>
    <g id="xtick_3">
     <g id="line2d_5">
      <path d="M 454.422481 631.8 
L 454.422481 70.2 
" clip-path="url(#p5f03be8e7e)" style="fill: none; stroke: #b0b0b0; stroke-width: 0.8; stroke-linecap: square"/>
     </g>
     <g id="line2d_6">
      <g>
       <use xlink:href="#mbad1e0ccaf" x="454.422481" y="631.8" style="stroke: #000000; stroke-width: 0.8"/>
      </g>
     </g>
     <g id="text_3">
      <!-- 01-10-2020 -->
      <g transform="translate(403.05303 674.438252) rotate(-30) scale(0.1 -0.1)">
       <use xlink:href="#DejaVuSans-30"/>
       <use xlink:href="#DejaVuSans-31" x="63.623047"/>
       <use xlink:href="#DejaVuSans-2d" x="127.246094"/>
       <use xlink:href="#DejaVuSans-31" x="163.330078"/>
       <use xlink:href="#DejaVuSans-30" x="226.953125"/>
       <use xlink:href="#DejaVuSans-2d" x="290.576172"/>
       <use xlink:href="#DejaVuSans-32" x="326.660156"/>
       <use xlink:href="#DejaVuSans-30" x="390.283203"/>
       <use xlink:href="#DejaVuSans-32" x="453.90625"/>
       <use xlink:href="#DejaVuSans-30" x="517.529297"/>
      </g>
     </g>
    </g>
    <g id="xtick_4">
     <g id="line2d_7">
      <path d="M 618.826494 631.8 
L 618.826494 70.2 
" clip-path="url(#p5f03be8e7e)" style="fill: none; stroke: #b0b0b0; stroke-width: 0.8; stroke-linecap: square"/>
     </g>
     <g id="line2d_8">
      <g>
       <use xlink:href="#mbad1e0ccaf" x="618.826494" y="631.8" style="stroke: #000000; stroke-width: 0.8"/>
      </g>
     </g>
     <g id="text_4">
      <!-- 01-01-2021 -->
      <g transform="translate(567.457043 674.438252) rotate(-30) scale(0.1 -0.1)">
       <use xlink:href="#DejaVuSans-30"/>
       <use xlink:href="#DejaVuSans-31" x="63.623047"/>
       <use xlink:href="#DejaVuSans-2d" x="127.246094"/>
       <use xlink:href="#DejaVuSans-30" x="163.330078"/>
       <use xlink:href="#DejaVuSans-31" x="226.953125"/>
       <use xlink:href="#DejaVuSans-2d" x="290.576172"/>
       <use xlink:href="#DejaVuSans-32" x="326.660156"/>
       <use xlink:href="#DejaVuSans-30" x="390.283203"/>
       <use xlink:href="#DejaVuSans-32" x="453.90625"/>
       <use xlink:href="#DejaVuSans-31" x="517.529297"/>
      </g>
     </g>
    </g>
    <g id="xtick_5">
     <g id="line2d_9">
      <path d="M 779.656507 631.8 
L 779.656507 70.2 
" clip-path="url(#p5f03be8e7e)" style="fill: none; stroke: #b0b0b0; stroke-width: 0.8; stroke-linecap: square"/>
     </g>
     <g id="line2d_10">
      <g>
       <use xlink:href="#mbad1e0ccaf" x="779.656507" y="631.8" style="stroke: #000000; stroke-width: 0.8"/>
      </g>
     </g>
     <g id="text_5">
      <!-- 01-04-2021 -->
      <g transform="translate(728.287056 674.438252) rotate(-30) scale(0.1 -0.1)">
       <use xlink:href="#DejaVuSans-30"/>
       <use xlink:href="#DejaVuSans-31" x="63.623047"/>
       <use xlink:href="#DejaVuSans-2d" x="127.246094"/>
       <use xlink:href="#DejaVuSans-30" x="163.330078"/>
       <use xlink:href="#DejaVuSans-34" x="226.953125"/>
       <use xlink:href="#DejaVuSans-2d" x="290.576172"/>
       <use xlink:href="#DejaVuSans-32" x="326.660156"/>
       <use xlink:href="#DejaVuSans-30" x="390.283203"/>
       <use xlink:href="#DejaVuSans-32" x="453.90625"/>
       <use xlink:href="#DejaVuSans-31" x="517.529297"/>
      </g>
     </g>
    </g>
    <g id="xtick_6">
     <g id="line2d_11">
      <path d="M 942.27352 631.8 
L 942.27352 70.2 
" clip-path="url(#p5f03be8e7e)" style="fill: none; stroke: #b0b0b0; stroke-width: 0.8; stroke-linecap: square"/>
     </g>
     <g id="line2d_12">
      <g>
       <use xlink:href="#mbad1e0ccaf" x="942.27352" y="631.8" style="stroke: #000000; stroke-width: 0.8"/>
      </g>
     </g>
     <g id="text_6">
      <!-- 01-07-2021 -->
      <g transform="translate(890.904068 674.438252) rotate(-30) scale(0.1 -0.1)">
       <use xlink:href="#DejaVuSans-30"/>
       <use xlink:href="#DejaVuSans-31" x="63.623047"/>
       <use xlink:href="#DejaVuSans-2d" x="127.246094"/>
       <use xlink:href="#DejaVuSans-30" x="163.330078"/>
       <use xlink:href="#DejaVuSans-37" x="226.953125"/>
       <use xlink:href="#DejaVuSans-2d" x="290.576172"/>
       <use xlink:href="#DejaVuSans-32" x="326.660156"/>
       <use xlink:href="#DejaVuSans-30" x="390.283203"/>
       <use xlink:href="#DejaVuSans-32" x="453.90625"/>
       <use xlink:href="#DejaVuSans-31" x="517.529297"/>
      </g>
     </g>
    </g>
    <g id="xtick_7">
     <g id="line2d_13">
      <path d="M 1106.677533 631.8 
L 1106.677533 70.2 
" clip-path="url(#p5f03be8e7e)" style="fill: none; stroke: #b0b0b0; stroke-width: 0.8; stroke-linecap: square"/>
     </g>
     <g id="line2d_14">
      <g>
       <use xlink:href="#mbad1e0ccaf" x="1106.677533" y="631.8" style="stroke: #000000; stroke-width: 0.8"/>
      </g>
     </g>
     <g id="text_7">
      <!-- 01-10-2021 -->
      <g transform="translate(1055.308081 674.438252) rotate(-30) scale(0.1 -0.1)">
       <use xlink:href="#DejaVuSans-30"/>
       <use xlink:href="#DejaVuSans-31" x="63.623047"/>
       <use xlink:href="#DejaVuSans-2d" x="127.246094"/>
       <use xlink:href="#DejaVuSans-31" x="163.330078"/>
       <use xlink:href="#DejaVuSans-30" x="226.953125"/>
       <use xlink:href="#DejaVuSans-2d" x="290.576172"/>
       <use xlink:href="#DejaVuSans-32" x="326.660156"/>
       <use xlink:href="#DejaVuSans-30" x="390.283203"/>
       <use xlink:href="#DejaVuSans-32" x="453.90625"/>
       <use xlink:href="#DejaVuSans-31" x="517.529297"/>
      </g>
     </g>
    </g>
    <g id="xtick_8">
     <g id="line2d_15">
      <path d="M 1271.081546 631.8 
L 1271.081546 70.2 
" clip-path="url(#p5f03be8e7e)" style="fill: none; stroke: #b0b0b0; stroke-width: 0.8; stroke-linecap: square"/>
     </g>
     <g id="line2d_16">
      <g>
       <use xlink:href="#mbad1e0ccaf" x="1271.081546" y="631.8" style="stroke: #000000; stroke-width: 0.8"/>
      </g>
     </g>
     <g id="text_8">
      <!-- 01-01-2022 -->
      <g transform="translate(1219.712094 674.438252) rotate(-30) scale(0.1 -0.1)">
       <use xlink:href="#DejaVuSans-30"/>
       <use xlink:href="#DejaVuSans-31" x="63.623047"/>
       <use xlink:href="#DejaVuSans-2d" x="127.246094"/>
       <use xlink:href="#DejaVuSans-30" x="163.330078"/>
       <use xlink:href="#DejaVuSans-31" x="226.953125"/>
       <use xlink:href="#DejaVuSans-2d" x="290.576172"/>
       <use xlink:href="#DejaVuSans-32" x="326.660156"/>
       <use xlink:href="#DejaVuSans-30" x="390.283203"/>
       <use xlink:href="#DejaVuSans-32" x="453.90625"/>
       <use xlink:href="#DejaVuSans-32" x="517.529297"/>
      </g>
     </g>
    </g>
    <g id="text_9">
     <!-- Дата -->
     <g transform="translate(678.253125 687.837752) scale(0.1 -0.1)">
      <defs>
       <path id="DejaVuSans-414" d="M 1459 531 
L 3522 531 
L 3522 4134 
L 2006 4134 
L 2006 3472 
Q 2006 1913 1656 878 
Q 1584 666 1459 531 
z
M 538 531 
Q 956 728 1075 1103 
Q 1378 2066 1378 3784 
L 1378 4666 
L 4153 4666 
L 4153 531 
L 4684 531 
L 4684 -1003 
L 4153 -1003 
L 4153 0 
L 847 0 
L 847 -1003 
L 316 -1003 
L 316 531 
L 538 531 
z
" transform="scale(0.015625)"/>
       <path id="DejaVuSans-430" d="M 2194 1759 
Q 1497 1759 1228 1600 
Q 959 1441 959 1056 
Q 959 750 1161 570 
Q 1363 391 1709 391 
Q 2188 391 2477 730 
Q 2766 1069 2766 1631 
L 2766 1759 
L 2194 1759 
z
M 3341 1997 
L 3341 0 
L 2766 0 
L 2766 531 
Q 2569 213 2275 61 
Q 1981 -91 1556 -91 
Q 1019 -91 701 211 
Q 384 513 384 1019 
Q 384 1609 779 1909 
Q 1175 2209 1959 2209 
L 2766 2209 
L 2766 2266 
Q 2766 2663 2505 2880 
Q 2244 3097 1772 3097 
Q 1472 3097 1187 3025 
Q 903 2953 641 2809 
L 641 3341 
Q 956 3463 1253 3523 
Q 1550 3584 1831 3584 
Q 2591 3584 2966 3190 
Q 3341 2797 3341 1997 
z
" transform="scale(0.015625)"/>
       <path id="DejaVuSans-442" d="M 188 3500 
L 3541 3500 
L 3541 3041 
L 2147 3041 
L 2147 0 
L 1581 0 
L 1581 3041 
L 188 3041 
L 188 3500 
z
" transform="scale(0.015625)"/>
      </defs>
      <use xlink:href="#DejaVuSans-414"/>
      <use xlink:href="#DejaVuSans-430" x="78.125"/>
      <use xlink:href="#DejaVuSans-442" x="139.404297"/>
      <use xlink:href="#DejaVuSans-430" x="197.65625"/>
     </g>
    </g>
   </g>
   <g id="matplotlib.axis_2">
    <g id="ytick_1">
     <g id="line2d_17">
      <path d="M 55.296 614.297705 
L 1327.104 614.297705 
" clip-path="url(#p5f03be8e7e)" style="fill: none; stroke: #b0b0b0; stroke-width: 0.8; stroke-linecap: square"/>
     </g>
     <g id="line2d_18">
      <defs>
       <path id="md654f1171f" d="M 0 0 
L -3.5 0 
" style="stroke: #000000; stroke-width: 0.8"/>
      </defs>
      <g>
       <use xlink:href="#md654f1171f" x="55.296" y="614.297705" style="stroke: #000000; stroke-width: 0.8"/>
      </g>
     </g>
     <g id="text_10">
      <!-- 30 -->
      <g transform="translate(35.571 618.096924) scale(0.1 -0.1)">
       <defs>
        <path id="DejaVuSans-33" d="M 2597 2516 
Q 3050 2419 3304 2112 
Q 3559 1806 3559 1356 
Q 3559 666 3084 287 
Q 2609 -91 1734 -91 
Q 1441 -91 1130 -33 
Q 819 25 488 141 
L 488 750 
Q 750 597 1062 519 
Q 1375 441 1716 441 
Q 2309 441 2620 675 
Q 2931 909 2931 1356 
Q 2931 1769 2642 2001 
Q 2353 2234 1838 2234 
L 1294 2234 
L 1294 2753 
L 1863 2753 
Q 2328 2753 2575 2939 
Q 2822 3125 2822 3475 
Q 2822 3834 2567 4026 
Q 2313 4219 1838 4219 
Q 1578 4219 1281 4162 
Q 984 4106 628 3988 
L 628 4550 
Q 988 4650 1302 4700 
Q 1616 4750 1894 4750 
Q 2613 4750 3031 4423 
Q 3450 4097 3450 3541 
Q 3450 3153 3228 2886 
Q 3006 2619 2597 2516 
z
" transform="scale(0.015625)"/>
       </defs>
       <use xlink:href="#DejaVuSans-33"/>
       <use xlink:href="#DejaVuSans-30" x="63.623047"/>
      </g>
     </g>
    </g>
    <g id="ytick_2">
     <g id="line2d_19">
      <path d="M 55.296 522.46657 
L 1327.104 522.46657 
" clip-path="url(#p5f03be8e7e)" style="fill: none; stroke: #b0b0b0; stroke-width: 0.8; stroke-linecap: square"/>
     </g>
     <g id="line2d_20">
      <g>
       <use xlink:href="#md654f1171f" x="55.296" y="522.46657" style="stroke: #000000; stroke-width: 0.8"/>
      </g>
     </g>
     <g id="text_11">
      <!-- 40 -->
      <g transform="translate(35.571 526.265789) scale(0.1 -0.1)">
       <use xlink:href="#DejaVuSans-34"/>
       <use xlink:href="#DejaVuSans-30" x="63.623047"/>
      </g>
     </g>
    </g>
    <g id="ytick_3">
     <g id="line2d_21">
      <path d="M 55.296 430.635434 
L 1327.104 430.635434 
" clip-path="url(#p5f03be8e7e)" style="fill: none; stroke: #b0b0b0; stroke-width: 0.8; stroke-linecap: square"/>
     </g>
     <g id="line2d_22">
      <g>
       <use xlink:href="#md654f1171f" x="55.296" y="430.635434" style="stroke: #000000; stroke-width: 0.8"/>
      </g>
     </g>
     <g id="text_12">
      <!-- 50 -->
      <g transform="translate(35.571 434.434653) scale(0.1 -0.1)">
       <defs>
        <path id="DejaVuSans-35" d="M 691 4666 
L 3169 4666 
L 3169 4134 
L 1269 4134 
L 1269 2991 
Q 1406 3038 1543 3061 
Q 1681 3084 1819 3084 
Q 2600 3084 3056 2656 
Q 3513 2228 3513 1497 
Q 3513 744 3044 326 
Q 2575 -91 1722 -91 
Q 1428 -91 1123 -41 
Q 819 9 494 109 
L 494 744 
Q 775 591 1075 516 
Q 1375 441 1709 441 
Q 2250 441 2565 725 
Q 2881 1009 2881 1497 
Q 2881 1984 2565 2268 
Q 2250 2553 1709 2553 
Q 1456 2553 1204 2497 
Q 953 2441 691 2322 
L 691 4666 
z
" transform="scale(0.015625)"/>
       </defs>
       <use xlink:href="#DejaVuSans-35"/>
       <use xlink:href="#DejaVuSans-30" x="63.623047"/>
      </g>
     </g>
    </g>
    <g id="ytick_4">
     <g id="line2d_23">
      <path d="M 55.296 338.804299 
L 1327.104 338.804299 
" clip-path="url(#p5f03be8e7e)" style="fill: none; stroke: #b0b0b0; stroke-width: 0.8; stroke-linecap: square"/>
     </g>
     <g id="line2d_24">
      <g>
       <use xlink:href="#md654f1171f" x="55.296" y="338.804299" style="stroke: #000000; stroke-width: 0.8"/>
      </g>
     </g>
     <g id="text_13">
      <!-- 60 -->
      <g transform="translate(35.571 342.603518) scale(0.1 -0.1)">
       <defs>
        <path id="DejaVuSans-36" d="M 2113 2584 
Q 1688 2584 1439 2293 
Q 1191 2003 1191 1497 
Q 1191 994 1439 701 
Q 1688 409 2113 409 
Q 2538 409 2786 701 
Q 3034 994 3034 1497 
Q 3034 2003 2786 2293 
Q 2538 2584 2113 2584 
z
M 3366 4563 
L 3366 3988 
Q 3128 4100 2886 4159 
Q 2644 4219 2406 4219 
Q 1781 4219 1451 3797 
Q 1122 3375 1075 2522 
Q 1259 2794 1537 2939 
Q 1816 3084 2150 3084 
Q 2853 3084 3261 2657 
Q 3669 2231 3669 1497 
Q 3669 778 3244 343 
Q 2819 -91 2113 -91 
Q 1303 -91 875 529 
Q 447 1150 447 2328 
Q 447 3434 972 4092 
Q 1497 4750 2381 4750 
Q 2619 4750 2861 4703 
Q 3103 4656 3366 4563 
z
" transform="scale(0.015625)"/>
       </defs>
       <use xlink:href="#DejaVuSans-36"/>
       <use xlink:href="#DejaVuSans-30" x="63.623047"/>
      </g>
     </g>
    </g>
    <g id="ytick_5">
     <g id="line2d_25">
      <path d="M 55.296 246.973164 
L 1327.104 246.973164 
" clip-path="url(#p5f03be8e7e)" style="fill: none; stroke: #b0b0b0; stroke-width: 0.8; stroke-linecap: square"/>
     </g>
     <g id="line2d_26">
      <g>
       <use xlink:href="#md654f1171f" x="55.296" y="246.973164" style="stroke: #000000; stroke-width: 0.8"/>
      </g>
     </g>
     <g id="text_14">
      <!-- 70 -->
      <g transform="translate(35.571 250.772383) scale(0.1 -0.1)">
       <use xlink:href="#DejaVuSans-37"/>
       <use xlink:href="#DejaVuSans-30" x="63.623047"/>
      </g>
     </g>
    </g>
    <g id="ytick_6">
     <g id="line2d_27">
      <path d="M 55.296 155.142028 
L 1327.104 155.142028 
" clip-path="url(#p5f03be8e7e)" style="fill: none; stroke: #b0b0b0; stroke-width: 0.8; stroke-linecap: square"/>
     </g>
     <g id="line2d_28">
      <g>
       <use xlink:href="#md654f1171f" x="55.296" y="155.142028" style="stroke: #000000; stroke-width: 0.8"/>
      </g>
     </g>
     <g id="text_15">
      <!-- 80 -->
      <g transform="translate(35.571 158.941247) scale(0.1 -0.1)">
       <defs>
        <path id="DejaVuSans-38" d="M 2034 2216 
Q 1584 2216 1326 1975 
Q 1069 1734 1069 1313 
Q 1069 891 1326 650 
Q 1584 409 2034 409 
Q 2484 409 2743 651 
Q 3003 894 3003 1313 
Q 3003 1734 2745 1975 
Q 2488 2216 2034 2216 
z
M 1403 2484 
Q 997 2584 770 2862 
Q 544 3141 544 3541 
Q 544 4100 942 4425 
Q 1341 4750 2034 4750 
Q 2731 4750 3128 4425 
Q 3525 4100 3525 3541 
Q 3525 3141 3298 2862 
Q 3072 2584 2669 2484 
Q 3125 2378 3379 2068 
Q 3634 1759 3634 1313 
Q 3634 634 3220 271 
Q 2806 -91 2034 -91 
Q 1263 -91 848 271 
Q 434 634 434 1313 
Q 434 1759 690 2068 
Q 947 2378 1403 2484 
z
M 1172 3481 
Q 1172 3119 1398 2916 
Q 1625 2713 2034 2713 
Q 2441 2713 2670 2916 
Q 2900 3119 2900 3481 
Q 2900 3844 2670 4047 
Q 2441 4250 2034 4250 
Q 1625 4250 1398 4047 
Q 1172 3844 1172 3481 
z
" transform="scale(0.015625)"/>
       </defs>
       <use xlink:href="#DejaVuSans-38"/>
       <use xlink:href="#DejaVuSans-30" x="63.623047"/>
      </g>
     </g>
    </g>
    <g id="text_16">
     <!-- Цена -->
     <g transform="translate(29.491312 364.291406) rotate(-90) scale(0.1 -0.1)">
      <defs>
       <path id="DejaVuSans-426" d="M 4184 0 
L 628 0 
L 628 4666 
L 1259 4666 
L 1259 531 
L 3553 531 
L 3553 4666 
L 4184 4666 
L 4184 531 
L 4716 531 
L 4716 -1003 
L 4184 -1003 
L 4184 0 
z
" transform="scale(0.015625)"/>
       <path id="DejaVuSans-435" d="M 3597 1894 
L 3597 1613 
L 953 1613 
Q 991 1019 1311 708 
Q 1631 397 2203 397 
Q 2534 397 2845 478 
Q 3156 559 3463 722 
L 3463 178 
Q 3153 47 2828 -22 
Q 2503 -91 2169 -91 
Q 1331 -91 842 396 
Q 353 884 353 1716 
Q 353 2575 817 3079 
Q 1281 3584 2069 3584 
Q 2775 3584 3186 3129 
Q 3597 2675 3597 1894 
z
M 3022 2063 
Q 3016 2534 2758 2815 
Q 2500 3097 2075 3097 
Q 1594 3097 1305 2825 
Q 1016 2553 972 2059 
L 3022 2063 
z
" transform="scale(0.015625)"/>
       <path id="DejaVuSans-43d" d="M 581 3500 
L 1159 3500 
L 1159 2072 
L 3025 2072 
L 3025 3500 
L 3603 3500 
L 3603 0 
L 3025 0 
L 3025 1613 
L 1159 1613 
L 1159 0 
L 581 0 
L 581 3500 
z
" transform="scale(0.015625)"/>
      </defs>
      <use xlink:href="#DejaVuSans-426"/>
      <use xlink:href="#DejaVuSans-435" x="77.636719"/>
      <use xlink:href="#DejaVuSans-43d" x="139.160156"/>
      <use xlink:href="#DejaVuSans-430" x="204.541016"/>
     </g>
    </g>
   </g>
   <g id="line2d_29">
    <path d="M 113.105455 606.272727 
L 114.892455 592.790021 
L 118.466455 575.161823 
L 123.827455 586.106775 
L 125.614456 580.710561 
L 127.401456 578.670823 
L 129.188456 588.72757 
L 130.975456 588.495245 
L 136.336456 590.128381 
L 138.123457 581.498019 
L 139.910457 577.196131 
L 141.697457 567.523848 
L 148.845457 565.027518 
L 150.632457 560.277027 
L 152.419458 557.924288 
L 154.206458 569.973061 
L 155.993458 569.61883 
L 161.354458 558.215184 
L 163.141458 566.072242 
L 164.928459 575.668018 
L 166.715459 570.199815 
L 168.502459 568.287729 
L 173.863459 563.727105 
L 175.650459 556.95348 
L 177.43746 552.021213 
L 179.22446 536.776686 
L 181.01146 548.42863 
L 186.37246 550.410602 
L 188.15946 545.356079 
L 189.946461 542.33786 
L 191.733461 541.204193 
L 193.520461 527.855322 
L 198.881461 523.987362 
L 200.668461 527.390254 
L 202.455462 527.636695 
L 204.242462 535.960678 
L 206.029462 534.929862 
L 211.390462 533.780817 
L 213.177462 520.073336 
L 214.964463 521.836961 
L 216.751463 517.046184 
L 218.538463 521.249285 
L 225.686463 523.316312 
L 229.260464 519.631843 
L 231.047464 519.710802 
L 236.408464 522.344558 
L 238.195464 516.378147 
L 239.982465 515.774321 
L 241.769465 512.223389 
L 243.556465 512.583226 
L 248.917465 504.413553 
L 250.704465 502.735963 
L 252.491466 505.179957 
L 254.278466 502.68093 
L 256.065466 515.425555 
L 263.213466 495.695018 
L 265.000466 490.816559 
L 266.787467 486.940051 
L 268.574467 481.45132 
L 273.935467 472.469879 
L 275.722467 461.718997 
L 277.509467 445.32567 
L 279.296468 435.451959 
L 281.083468 433.52502 
L 286.444468 444.611707 
L 288.231468 440.682583 
L 290.018468 433.705849 
L 291.805469 437.891819 
L 298.953469 431.782028 
L 300.740469 429.053549 
L 302.527469 432.287837 
L 304.31447 428.976901 
L 306.10147 419.238269 
L 311.46247 420.030876 
L 313.24947 416.326334 
L 315.03647 402.833627 
L 316.823471 391.762529 
L 318.610471 403.427224 
L 323.971471 391.566391 
L 325.758471 379.845016 
L 327.545471 382.001582 
L 329.332472 377.174478 
L 331.119472 379.570234 
L 336.480472 378.929941 
L 338.267472 364.733395 
L 340.054472 372.829398 
L 341.841473 366.929441 
L 343.628473 369.858997 
L 348.989473 366.747631 
L 350.776473 358.1131 
L 352.563473 357.357696 
L 354.350474 347.999008 
L 356.137474 346.479442 
L 361.498474 353.14829 
L 363.285474 370.2044 
L 365.072474 368.609833 
L 366.859474 360.872546 
L 368.646475 348.57029 
L 374.007475 344.597097 
L 375.794475 339.949526 
L 377.581475 333.312696 
L 379.368475 324.668917 
L 381.155476 315.27187 
L 386.516476 315.498414 
L 390.090476 288.782632 
L 391.877476 299.030611 
L 393.664477 305.380469 
L 399.025477 299.981207 
L 400.812477 278.285653 
L 402.599477 280.652684 
L 404.386477 281.804076 
L 406.173478 298.598471 
L 413.321478 304.818295 
L 415.108478 331.640466 
L 416.895478 319.846962 
L 418.682479 333.927907 
L 424.043479 326.988586 
L 425.830479 321.351185 
L 427.617479 324.127306 
L 429.404479 329.883461 
L 431.19148 334.601129 
L 436.55248 333.996427 
L 438.33948 349.36083 
L 440.12648 294.832941 
L 441.91348 304.825826 
L 443.700481 328.543183 
L 449.061481 314.673019 
L 450.848481 308.262348 
L 452.635481 305.31955 
L 454.422481 300.281911 
L 456.209482 313.063283 
L 461.570482 321.133819 
L 463.357482 311.969552 
L 465.144482 326.497104 
L 466.931482 334.569881 
L 468.718483 334.890063 
L 474.079483 334.084074 
L 475.866483 329.439025 
L 477.653483 320.705392 
L 479.440483 331.446676 
L 481.227483 336.014622 
L 488.375484 365.181404 
L 490.162484 371.36483 
L 491.949484 362.485014 
L 493.736484 357.207168 
L 499.097485 348.912821 
L 500.884485 349.32128 
L 502.671485 345.995036 
L 504.458485 359.59189 
L 506.245485 350.133575 
L 511.606486 361.339016 
L 513.393486 366.328593 
L 515.180486 359.197513 
L 516.967486 331.840912 
L 518.754486 318.616436 
L 524.115487 313.199483 
L 525.902487 303.168134 
L 527.689487 331.847428 
L 529.476487 331.701209 
L 531.263487 333.367134 
L 536.624488 324.816151 
L 538.411488 325.335763 
L 540.198488 330.193379 
L 541.985488 328.10726 
L 543.772488 321.770749 
L 549.133489 326.642026 
L 550.920489 330.185216 
L 552.707489 299.805913 
L 556.281489 298.173478 
L 561.64249 286.109081 
L 563.42949 272.814052 
L 565.21649 264.493888 
L 567.00349 269.031357 
L 568.79049 267.490492 
L 574.151491 276.020632 
L 575.938491 276.514496 
L 577.725491 270.052154 
L 579.512491 269.629403 
L 581.299491 258.672399 
L 586.660492 260.660958 
L 588.447492 274.053442 
L 590.234492 269.725667 
L 592.021492 257.476448 
L 593.808492 258.085073 
L 599.169493 266.701108 
L 600.956493 281.952116 
L 602.743493 282.447312 
L 604.530493 279.030127 
L 611.678494 279.717642 
L 613.465494 275.970888 
L 615.252494 280.770738 
L 617.039494 267.072715 
L 624.187495 266.131507 
L 625.974495 264.590993 
L 627.761495 249.129239 
L 629.548495 260.938822 
L 631.335495 255.728902 
L 636.696496 255.500851 
L 638.483496 261.645113 
L 640.270496 263.887995 
L 642.057496 268.23896 
L 643.844496 266.614792 
L 650.992497 280.536101 
L 652.779497 275.701081 
L 654.566497 260.848092 
L 656.353497 271.777211 
L 661.714498 287.497281 
L 663.501498 298.075041 
L 665.288498 298.796185 
L 667.075498 311.176104 
L 668.862498 308.9816 
L 674.223499 319.683509 
L 676.010499 312.347499 
L 677.797499 297.205997 
L 679.584499 304.433236 
L 681.371499 290.774062 
L 686.7325 286.668873 
L 690.3065 265.857707 
L 692.0935 252.933304 
L 693.8805 244.492983 
L 701.028501 238.236903 
L 702.815501 243.037103 
L 704.602501 258.405395 
L 706.389501 276.091674 
L 711.750502 279.775022 
L 713.537502 290.901785 
L 715.324502 282.043757 
L 717.111502 284.843839 
L 718.898502 301.979784 
L 724.259503 307.894874 
L 726.046503 283.255822 
L 727.833503 279.378614 
L 729.620503 292.278775 
L 731.407503 317.786766 
L 736.768504 310.918137 
L 738.555504 338.283636 
L 740.342504 312.870719 
L 742.129504 312.045218 
L 743.916504 289.419561 
L 749.277505 281.498608 
L 751.064505 268.672641 
L 752.851505 258.454998 
L 754.638505 273.060809 
L 756.425505 296.679344 
L 761.786506 294.74116 
L 763.573506 297.690613 
L 765.360506 304.697508 
L 767.147506 315.908134 
L 768.934506 323.440807 
L 774.295507 316.874844 
L 776.082507 311.759157 
L 777.869507 316.681054 
L 779.656507 309.387011 
L 786.804508 302.449722 
L 788.591508 304.089864 
L 790.378508 306.652858 
L 792.165508 319.791719 
L 793.952508 311.263121 
L 799.313509 325.191086 
L 801.100509 318.53068 
L 802.887509 343.028348 
L 804.674509 332.901855 
L 806.461509 330.676278 
L 811.822509 326.614843 
L 811.822509 326.614843 
" clip-path="url(#p5f03be8e7e)" style="fill: none; stroke: #1f77b4; stroke-width: 1.5; stroke-linecap: square"/>
   </g>
   <g id="line2d_30">
    <path d="M 113.105455 596.941626 
L 114.892455 582.891474 
L 116.679455 570.035101 
L 118.466455 586.932031 
L 123.827455 578.667215 
L 125.614456 577.106102 
L 127.401456 591.982736 
L 129.188456 590.329773 
L 130.975456 592.441885 
L 136.336456 578.759066 
L 138.123457 572.973694 
L 139.910457 559.841839 
L 141.697457 557.913394 
L 150.632457 551.393391 
L 152.419458 569.392286 
L 154.206458 568.65762 
L 155.993458 553.505503 
L 161.354458 564.617062 
L 163.141458 577.381585 
L 164.928459 568.841286 
L 166.715459 566.086359 
L 168.502459 559.199024 
L 173.863459 550.383243 
L 175.650459 544.597872 
L 177.43746 526.047978 
L 179.22446 542.853093 
L 181.01146 546.250835 
L 186.37246 540.832797 
L 188.15946 537.343204 
L 189.946461 536.149424 
L 191.733461 519.711643 
L 193.520461 515.67105 
L 200.668461 522.46657 
L 202.455462 534.312795 
L 204.242462 533.210796 
L 206.029462 531.741499 
L 211.390462 514.018122 
L 213.177462 516.130234 
L 214.964463 510.436678 
L 216.751463 516.681198 
L 218.538463 520.078976 
L 225.686463 518.517828 
L 227.473464 516.313901 
L 229.260464 516.589383 
L 231.047464 520.354458 
L 236.408464 513.283456 
L 238.195464 512.916123 
L 239.982465 508.967382 
L 241.769465 510.344863 
L 243.556465 501.161749 
L 248.917465 499.967935 
L 250.704465 504.192158 
L 252.491466 502.53923 
L 254.278466 519.803458 
L 256.065466 502.447379 
L 261.426466 496.019193 
L 263.213466 489.958339 
L 265.000466 486.101449 
L 266.787467 480.591559 
L 268.574467 470.857482 
L 273.935467 458.735774 
L 275.722467 439.818548 
L 277.509467 427.880507 
L 279.296468 425.584729 
L 281.083468 439.543066 
L 286.444468 437.614585 
L 288.231468 430.451768 
L 290.018468 435.318807 
L 291.805469 429.533471 
L 298.953469 426.686693 
L 300.740469 430.910917 
L 302.527469 428.523323 
L 304.31447 417.962728 
L 306.10147 418.421877 
L 311.46247 414.840468 
L 313.24947 399.872018 
L 315.03647 386.37283 
L 316.823471 398.586353 
L 318.610471 387.107461 
L 323.971471 373.791974 
L 325.758471 375.353087 
L 327.545471 370.669714 
L 329.332472 373.608308 
L 331.119472 373.516457 
L 336.480472 358.180674 
L 338.267472 366.35364 
L 340.054472 360.751935 
L 341.841473 364.241528 
L 343.628473 361.39475 
L 348.989473 352.02797 
L 350.776473 350.83419 
L 352.563473 340.640929 
L 354.350474 338.804299 
L 356.137474 346.518116 
L 361.498474 366.35364 
L 363.285474 366.35364 
L 365.072474 357.905192 
L 366.859474 343.487672 
L 368.646475 338.34515 
L 374.007475 333.202594 
L 375.794475 325.947926 
L 377.581475 316.213848 
L 379.368475 305.469587 
L 381.155476 306.020587 
L 386.516476 290.501102 
L 388.303476 274.797987 
L 390.090476 288.205324 
L 391.877476 296.653842 
L 393.664477 290.592953 
L 399.025477 263.227244 
L 400.812477 266.900503 
L 402.599477 269.196282 
L 404.386477 290.592953 
L 406.173478 298.031253 
L 413.321478 328.427371 
L 415.108478 315.111849 
L 416.895478 330.080334 
L 418.682479 322.091035 
L 424.043479 315.111849 
L 425.830479 317.958627 
L 427.617479 324.754147 
L 429.404479 330.447667 
L 431.19148 329.896668 
L 436.55248 347.160931 
L 438.33948 283.154654 
L 440.12648 294.725326 
L 441.91348 322.917517 
L 443.700481 308.224514 
L 449.061481 300.1434 
L 450.848481 296.378289 
L 452.635481 290.592953 
L 454.422481 306.112402 
L 456.209482 315.846515 
L 461.570482 305.194105 
L 463.357482 321.540036 
L 465.144482 330.998667 
L 466.931482 331.549631 
L 468.718483 330.264001 
L 474.079483 324.57048 
L 475.866483 314.101736 
L 477.653483 326.315259 
L 479.440483 332.10063 
L 481.227483 357.262342 
L 486.588484 366.812788 
L 488.375484 374.342939 
L 490.162484 364.333344 
L 491.949484 357.170526 
L 493.736484 346.885449 
L 499.097485 346.793598 
L 500.884485 343.120374 
L 502.671485 358.639823 
L 504.458485 348.90571 
L 506.245485 361.119268 
L 511.606486 367.455604 
L 513.393486 359.833638 
L 515.180486 327.417223 
L 516.967486 310.24481 
L 518.754486 303.816624 
L 524.115487 292.613249 
L 525.902487 326.774408 
L 527.689487 327.876407 
L 529.476487 329.713001 
L 531.263487 319.427924 
L 536.624488 319.519775 
L 538.411488 325.121445 
L 540.198488 323.009333 
L 541.985488 315.571033 
L 543.772488 320.989071 
L 549.133489 325.305111 
L 550.920489 289.399174 
L 552.707489 287.195176 
L 556.281489 272.77769 
L 561.64249 256.52361 
L 563.42949 246.51398 
L 565.21649 254.319683 
L 567.00349 253.034052 
L 568.79049 264.880207 
L 574.151491 265.339391 
L 575.938491 256.43176 
L 577.725491 255.880795 
L 579.512491 240.728644 
L 581.299491 244.401903 
L 586.660492 263.227244 
L 588.447492 257.166425 
L 590.234492 239.626645 
L 592.021492 241.004126 
L 593.808492 253.676868 
L 599.169493 273.696058 
L 600.956493 273.512356 
L 602.743493 268.186134 
L 604.530493 268.553467 
L 611.678494 263.502796 
L 613.465494 269.839097 
L 615.252494 251.564721 
L 617.039494 250.830055 
L 624.187495 249.268942 
L 625.974495 227.137605 
L 627.761495 245.963016 
L 629.548495 238.708348 
L 631.335495 238.708348 
L 638.483496 250.646423 
L 640.270496 256.248128 
L 642.057496 253.493166 
L 643.844496 271.583911 
L 650.992497 264.604725 
L 652.779497 243.759088 
L 654.566497 259.370353 
L 656.353497 279.665026 
L 661.714498 292.062285 
L 663.501498 291.970434 
L 665.288498 305.745104 
L 667.075498 302.622844 
L 668.862498 314.560885 
L 674.223499 305.745104 
L 676.010499 287.011544 
L 677.797499 295.735474 
L 679.584499 279.389543 
L 681.371499 274.706136 
L 686.7325 261.849833 
L 688.5195 248.717978 
L 690.3065 231.361899 
L 692.0935 220.158489 
L 693.8805 211.801822 
L 701.028501 221.53597 
L 704.602501 269.01265 
L 706.389501 272.134875 
L 711.750502 284.440284 
L 713.537502 271.951244 
L 715.324502 274.797987 
L 717.111502 295.459992 
L 718.898502 302.163661 
L 724.259503 271.124727 
L 726.046503 265.982206 
L 727.833503 282.879171 
L 729.620503 313.458921 
L 731.407503 305.469587 
L 736.768504 335.957521 
L 738.555504 306.755217 
L 740.342504 304.55129 
L 742.129504 276.542801 
L 743.916504 267.175986 
L 749.277505 251.289238 
L 751.064505 238.616497 
L 752.851505 260.655983 
L 754.638505 290.776585 
L 756.425505 287.837991 
L 761.786506 290.317471 
L 763.573506 297.939472 
L 765.360506 310.703959 
L 767.147506 319.152442 
L 768.934506 311.163143 
L 774.295507 304.459439 
L 776.082507 309.969328 
L 779.656507 293.164214 
L 786.804508 295.276361 
L 788.591508 298.674068 
L 790.378508 314.285403 
L 792.165508 304.459439 
L 793.952508 320.254406 
L 799.313509 312.63244 
L 801.100509 340.365412 
L 802.887509 329.621186 
L 804.674509 326.315259 
L 806.461509 321.080887 
L 811.822509 329.070186 
L 811.822509 329.070186 
" clip-path="url(#p5f03be8e7e)" style="fill: none; stroke-dasharray: 5.55,2.4; stroke-dashoffset: 0; stroke: #ff7f0e; stroke-width: 1.5"/>
   </g>
   <g id="line2d_31">
    <path d="M 811.822509 326.614807 
L 813.60951 333.647696 
L 815.39651 335.255294 
L 817.18351 336.050248 
L 818.97051 334.771098 
L 824.33151 334.902604 
L 826.118511 318.333247 
L 827.905511 315.65234 
L 829.692511 303.328505 
L 831.479511 282.633816 
L 836.840511 297.685989 
L 838.627512 304.974812 
L 840.414512 307.007299 
L 842.201512 301.65722 
L 843.988512 302.034012 
L 849.349512 296.900739 
L 851.136513 315.027951 
L 852.923513 314.586563 
L 854.710513 328.434657 
L 856.497513 320.745888 
L 861.858513 314.295387 
L 863.645514 312.737777 
L 865.432514 304.780812 
L 867.219514 307.837529 
L 869.006514 303.589134 
L 874.367514 302.666668 
L 876.154515 289.33815 
L 877.941515 287.535745 
L 879.728515 278.849509 
L 881.515515 278.998319 
L 888.663516 281.110466 
L 890.450516 283.685861 
L 892.237516 280.464919 
L 894.024516 286.600493 
L 899.385516 280.433741 
L 901.172517 281.41012 
L 902.959517 280.44383 
L 904.746517 273.898816 
L 906.533517 264.941861 
L 911.894517 261.486984 
L 913.681517 259.201224 
L 915.468518 274.964593 
L 917.255518 273.046517 
L 919.042518 264.03008 
L 924.403518 265.345837 
L 926.190518 272.701463 
L 927.977519 272.19751 
L 929.764519 267.569592 
L 931.551519 265.084647 
L 936.912519 259.106851 
L 938.699519 256.401913 
L 940.48652 261.124485 
L 942.27352 256.735687 
L 944.06052 258.714787 
L 951.20852 252.988652 
L 952.995521 256.251841 
L 954.782521 249.563481 
L 956.569521 249.776889 
L 961.930521 257.568859 
L 963.717521 254.967472 
L 965.504522 256.277484 
L 967.291522 262.123564 
L 969.078522 263.153609 
L 974.439522 263.799157 
L 976.226522 272.779932 
L 978.013523 271.729359 
L 979.800523 263.833627 
L 986.948523 260.012608 
L 988.735523 263.195436 
L 990.522524 273.882702 
L 992.309524 269.113119 
L 994.096524 269.505744 
L 999.457524 276.642849 
L 1001.244524 279.744686 
L 1003.031525 280.179558 
L 1004.818525 274.375235 
L 1006.605525 276.736171 
L 1011.966525 278.465011 
L 1013.753525 280.765623 
L 1015.540526 281.763651 
L 1017.327526 272.725985 
L 1019.114526 279.245287 
L 1024.475526 277.586788 
L 1026.262526 266.8062 
L 1028.049526 269.371015 
L 1029.836527 272.436841 
L 1031.623527 274.645673 
L 1036.984527 275.751525 
L 1038.771527 270.402602 
L 1040.558527 263.785425 
L 1042.345528 265.902826 
L 1044.132528 259.834861 
L 1049.493528 247.13977 
L 1051.280528 242.171002 
L 1053.067528 224.048169 
L 1054.854529 219.223727 
L 1056.641529 219.901083 
L 1063.789529 214.372522 
L 1065.576529 218.234037 
L 1067.36353 215.682954 
L 1069.15053 214.04043 
L 1074.51153 209.332151 
L 1076.29853 204.39477 
L 1078.08553 203.73535 
L 1079.872531 204.568032 
L 1081.659531 205.879095 
L 1087.020531 207.583974 
L 1088.807531 211.677113 
L 1090.594531 212.010045 
L 1092.381532 212.832708 
L 1094.168532 206.592042 
L 1099.529532 208.409089 
L 1101.316532 203.088332 
L 1103.103532 210.535109 
L 1104.890533 212.148627 
L 1106.677533 209.875268 
L 1112.038533 211.336823 
L 1113.825533 227.028869 
L 1115.612533 217.626183 
L 1119.186534 211.17351 
L 1124.547534 210.600406 
L 1126.334534 216.24639 
L 1128.121534 218.421242 
L 1129.908534 219.709815 
L 1131.695535 219.258548 
L 1137.056535 223.091968 
L 1138.843535 220.954809 
L 1140.630535 219.877402 
L 1142.417535 222.801633 
L 1144.204536 224.056576 
L 1149.565536 225.544825 
L 1151.352536 220.395437 
L 1153.139536 223.346642 
L 1154.926536 216.817672 
L 1156.713537 201.200242 
L 1162.074537 201.299939 
L 1163.861537 201.905201 
L 1165.648537 200.503759 
L 1167.435537 197.698563 
L 1169.222538 197.278053 
L 1174.583538 192.964081 
L 1176.370538 192.043121 
L 1178.157538 195.765984 
L 1179.944538 202.067814 
L 1181.731539 198.98034 
L 1187.092539 202.035936 
L 1188.879539 202.906522 
L 1190.666539 204.241475 
L 1192.453539 203.068014 
L 1194.24054 202.82497 
L 1199.60154 205.142467 
L 1201.38854 236.00432 
L 1203.17554 225.198931 
L 1206.749541 232.333373 
L 1212.110541 252.157302 
L 1213.897541 244.52353 
L 1215.684541 246.051293 
L 1217.471541 251.364134 
L 1219.258542 252.608148 
L 1224.619542 263.683415 
L 1226.406542 273.324241 
L 1228.193542 282.085934 
L 1229.980542 282.937322 
L 1231.767543 294.016723 
L 1237.128543 312.463556 
L 1238.915543 326.10567 
L 1240.702543 324.116061 
L 1242.489543 331.95182 
L 1244.276543 320.993205 
L 1249.637544 324.452567 
L 1251.424544 339.31687 
L 1253.211544 326.712999 
L 1254.998544 335.005419 
L 1262.146545 341.864975 
L 1263.933545 335.948273 
L 1265.720545 337.233203 
L 1267.507545 345.245762 
L 1269.294545 330.941882 
L 1269.294545 330.941882 
" clip-path="url(#p5f03be8e7e)" style="fill: none; stroke: #2ca02c; stroke-width: 1.5; stroke-linecap: square"/>
   </g>
   <g id="line2d_32">
    <path d="M 811.822509 329.070186 
L 813.60951 331.274149 
L 815.39651 332.284297 
L 817.18351 330.723149 
L 818.97051 330.723149 
L 824.33151 311.346774 
L 826.118511 307.765366 
L 827.905511 293.256064 
L 829.692511 267.818801 
L 831.479511 287.837991 
L 836.840511 297.388437 
L 838.627512 300.051549 
L 840.414512 293.347915 
L 842.201512 293.531547 
L 843.988512 287.287027 
L 849.349512 308.95918 
L 851.136513 308.683698 
L 852.923513 324.386814 
L 854.710513 315.479182 
L 856.497513 307.306217 
L 861.858513 305.102289 
L 863.645514 295.735474 
L 865.432514 299.592435 
L 867.219514 294.817177 
L 869.006514 293.89888 
L 874.367514 277.644729 
L 876.154515 275.808135 
L 877.941515 265.24754 
L 879.728515 266.257688 
L 881.515515 269.563615 
L 888.663516 273.145023 
L 890.450516 269.01265 
L 892.237516 276.818283 
L 894.024516 268.828949 
L 899.385516 270.114579 
L 901.172517 268.9208 
L 902.959517 260.472352 
L 904.746517 248.626127 
L 906.533517 244.585535 
L 911.894517 242.197976 
L 913.681517 264.512944 
L 915.468518 261.666131 
L 917.255518 248.901609 
L 919.042518 250.830055 
L 924.403518 261.023316 
L 926.190518 260.19687 
L 927.977519 253.676868 
L 929.764519 250.27909 
L 931.551519 242.106125 
L 936.912519 238.800198 
L 938.699519 246.238498 
L 940.48652 240.085829 
L 942.27352 243.208054 
L 944.06052 234.851457 
L 951.20852 240.085829 
L 952.995521 230.168049 
L 954.782521 230.994566 
L 956.569521 242.932571 
L 961.930521 238.892049 
L 963.717521 240.636793 
L 965.504522 248.809758 
L 967.291522 249.819907 
L 969.078522 250.27909 
L 974.439522 262.125315 
L 976.226522 260.105019 
L 978.013523 248.809758 
L 979.800523 247.615979 
L 981.587523 243.850939 
L 986.948523 248.809758 
L 988.735523 263.410945 
L 990.522524 256.52361 
L 992.309524 256.707242 
L 994.096524 265.982206 
L 999.457524 269.655465 
L 1001.244524 269.747316 
L 1003.031525 261.757982 
L 1004.818525 264.880207 
L 1006.605525 267.175986 
L 1013.753525 271.216578 
L 1015.540526 259.186722 
L 1017.327526 268.002502 
L 1019.114526 265.890355 
L 1024.475526 251.47287 
L 1026.262526 255.513462 
L 1028.049526 260.013168 
L 1029.836527 263.043612 
L 1031.623527 264.329243 
L 1036.984527 256.982724 
L 1038.771527 247.983312 
L 1040.558527 251.47287 
L 1042.345528 243.299904 
L 1044.132528 224.841827 
L 1049.493528 218.230044 
L 1051.280528 183.609666 
L 1053.067528 174.702035 
L 1054.854529 178.558996 
L 1056.641529 165.702623 
L 1063.789529 176.997813 
L 1065.576529 170.936995 
L 1067.36353 166.988253 
L 1069.15053 154.04003 
L 1074.51153 139.255211 
L 1076.29853 137.969581 
L 1078.08553 141.459209 
L 1079.872531 146.142546 
L 1081.659531 151.652471 
L 1087.020531 163.682327 
L 1088.807531 164.325142 
L 1090.594531 166.253587 
L 1092.381532 147.520027 
L 1094.168532 153.305434 
L 1099.529532 136.408468 
L 1101.316532 160.192769 
L 1103.103532 164.784326 
L 1104.890533 157.988771 
L 1106.677533 162.029364 
L 1112.038533 201.057596 
L 1113.825533 177.82433 
L 1117.399534 159.733585 
L 1119.186534 158.539806 
L 1126.334534 179.936407 
L 1128.121534 182.78322 
L 1129.908534 181.222037 
L 1131.695535 190.129669 
L 1137.056535 184.619815 
L 1138.843535 181.773072 
L 1140.630535 188.752258 
L 1142.417535 191.50715 
L 1144.204536 194.629445 
L 1149.565536 182.232185 
L 1151.352536 189.395073 
L 1153.139536 173.416405 
L 1154.926536 126.674391 
L 1156.713537 129.06202 
L 1162.074537 132.551578 
L 1163.861537 128.419134 
L 1165.648537 118.409574 
L 1167.435537 117.307576 
L 1169.222538 99.400532 
L 1174.583538 95.727273 
L 1176.370538 112.624238 
L 1178.157538 136.683951 
L 1179.944538 125.29691 
L 1181.731539 136.132986 
L 1187.092539 138.887948 
L 1188.879539 143.112172 
L 1190.666539 138.887948 
L 1192.453539 137.8778 
L 1194.24054 145.499731 
L 1199.60154 220.709454 
L 1201.38854 197.84352 
L 1203.17554 210.516192 
L 1206.749541 242.932571 
L 1212.110541 228.606937 
L 1213.897541 229.157901 
L 1215.684541 236.228938 
L 1217.471541 237.239086 
L 1219.258542 252.483018 
L 1224.619542 264.421094 
L 1226.406542 274.430654 
L 1228.193542 274.155171 
L 1229.980542 286.919694 
L 1231.767543 308.040883 
L 1237.128543 323.192999 
L 1238.915543 320.346256 
L 1240.702543 328.427371 
L 1242.489543 315.387367 
L 1244.276543 318.785109 
L 1249.637544 335.865706 
L 1251.424544 321.999185 
L 1253.211544 330.906816 
L 1254.998544 338.896115 
L 1262.146545 332.467963 
L 1263.933545 333.478076 
L 1265.720545 342.569374 
L 1267.507545 326.498926 
L 1269.294545 334.212742 
L 1269.294545 334.212742 
" clip-path="url(#p5f03be8e7e)" style="fill: none; stroke-dasharray: 5.55,2.4; stroke-dashoffset: 0; stroke: #d62728; stroke-width: 1.5"/>
   </g>
   <g id="line2d_33">
    <path d="M 811.822509 631.8 
L 811.822509 70.2 
" clip-path="url(#p5f03be8e7e)" style="fill: none; stroke: #0000ff; stroke-width: 1.5; stroke-linecap: square"/>
   </g>
   <g id="patch_3">
    <path d="M 55.296 631.8 
L 55.296 70.2 
" style="fill: none; stroke: #000000; stroke-width: 0.8; stroke-linejoin: miter; stroke-linecap: square"/>
   </g>
   <g id="patch_4">
    <path d="M 1327.104 631.8 
L 1327.104 70.2 
" style="fill: none; stroke: #000000; stroke-width: 0.8; stroke-linejoin: miter; stroke-linecap: square"/>
   </g>
   <g id="patch_5">
    <path d="M 55.296 631.8 
L 1327.104 631.8 
" style="fill: none; stroke: #000000; stroke-width: 0.8; stroke-linejoin: miter; stroke-linecap: square"/>
   </g>
   <g id="patch_6">
    <path d="M 55.296 70.2 
L 1327.104 70.2 
" style="fill: none; stroke: #000000; stroke-width: 0.8; stroke-linejoin: miter; stroke-linecap: square"/>
   </g>
   <g id="legend_1">
    <g id="patch_7">
     <path d="M 62.296 107.55625 
L 235.599125 107.55625 
Q 237.599125 107.55625 237.599125 105.55625 
L 237.599125 77.2 
Q 237.599125 75.2 235.599125 75.2 
L 62.296 75.2 
Q 60.296 75.2 60.296 77.2 
L 60.296 105.55625 
Q 60.296 107.55625 62.296 107.55625 
z
" style="fill: #ffffff; opacity: 0.8; stroke: #cccccc; stroke-linejoin: miter"/>
    </g>
    <g id="line2d_34">
     <path d="M 64.296 83.298437 
L 74.296 83.298437 
L 84.296 83.298437 
" style="fill: none; stroke: #1f77b4; stroke-width: 1.5; stroke-linecap: square"/>
    </g>
    <g id="text_17">
     <!-- Отклик модели -->
     <g transform="translate(92.296 86.798437) scale(0.1 -0.1)">
      <defs>
       <path id="DejaVuSans-41e" d="M 2522 4238 
Q 1834 4238 1429 3725 
Q 1025 3213 1025 2328 
Q 1025 1447 1429 934 
Q 1834 422 2522 422 
Q 3209 422 3611 934 
Q 4013 1447 4013 2328 
Q 4013 3213 3611 3725 
Q 3209 4238 2522 4238 
z
M 2522 4750 
Q 3503 4750 4090 4092 
Q 4678 3434 4678 2328 
Q 4678 1225 4090 567 
Q 3503 -91 2522 -91 
Q 1538 -91 948 565 
Q 359 1222 359 2328 
Q 359 3434 948 4092 
Q 1538 4750 2522 4750 
z
" transform="scale(0.015625)"/>
       <path id="DejaVuSans-43a" d="M 581 3500 
L 1153 3500 
L 1153 1856 
L 2775 3500 
L 3481 3500 
L 2144 2147 
L 3653 0 
L 3009 0 
L 1769 1766 
L 1153 1141 
L 1153 0 
L 581 0 
L 581 3500 
z
" transform="scale(0.015625)"/>
       <path id="DejaVuSans-43b" d="M 238 0 
L 238 478 
Q 806 566 981 959 
Q 1194 1513 1194 2928 
L 1194 3500 
L 3559 3500 
L 3559 0 
L 2984 0 
L 2984 3041 
L 1769 3041 
L 1769 2694 
Q 1769 1344 1494 738 
Q 1200 91 238 0 
z
" transform="scale(0.015625)"/>
       <path id="DejaVuSans-438" d="M 3578 3500 
L 3578 0 
L 3006 0 
L 3006 2809 
L 1319 0 
L 581 0 
L 581 3500 
L 1153 3500 
L 1153 697 
L 2838 3500 
L 3578 3500 
z
" transform="scale(0.015625)"/>
       <path id="DejaVuSans-20" transform="scale(0.015625)"/>
       <path id="DejaVuSans-43c" d="M 581 3500 
L 1422 3500 
L 2416 1156 
L 3413 3500 
L 4247 3500 
L 4247 0 
L 3669 0 
L 3669 2950 
L 2703 672 
L 2128 672 
L 1159 2950 
L 1159 0 
L 581 0 
L 581 3500 
z
" transform="scale(0.015625)"/>
       <path id="DejaVuSans-43e" d="M 1959 3097 
Q 1497 3097 1228 2736 
Q 959 2375 959 1747 
Q 959 1119 1226 758 
Q 1494 397 1959 397 
Q 2419 397 2687 759 
Q 2956 1122 2956 1747 
Q 2956 2369 2687 2733 
Q 2419 3097 1959 3097 
z
M 1959 3584 
Q 2709 3584 3137 3096 
Q 3566 2609 3566 1747 
Q 3566 888 3137 398 
Q 2709 -91 1959 -91 
Q 1206 -91 779 398 
Q 353 888 353 1747 
Q 353 2609 779 3096 
Q 1206 3584 1959 3584 
z
" transform="scale(0.015625)"/>
       <path id="DejaVuSans-434" d="M 1384 459 
L 3053 459 
L 3053 3041 
L 1844 3041 
L 1844 2603 
Q 1844 1316 1475 628 
L 1384 459 
z
M 550 459 
Q 834 584 959 850 
Q 1266 1509 1266 2838 
L 1266 3500 
L 3631 3500 
L 3631 459 
L 4091 459 
L 4091 -884 
L 3631 -884 
L 3631 0 
L 794 0 
L 794 -884 
L 334 -884 
L 334 459 
L 550 459 
z
" transform="scale(0.015625)"/>
      </defs>
      <use xlink:href="#DejaVuSans-41e"/>
      <use xlink:href="#DejaVuSans-442" x="78.710938"/>
      <use xlink:href="#DejaVuSans-43a" x="136.962891"/>
      <use xlink:href="#DejaVuSans-43b" x="197.363281"/>
      <use xlink:href="#DejaVuSans-438" x="261.279297"/>
      <use xlink:href="#DejaVuSans-43a" x="326.269531"/>
      <use xlink:href="#DejaVuSans-20" x="386.669922"/>
      <use xlink:href="#DejaVuSans-43c" x="418.457031"/>
      <use xlink:href="#DejaVuSans-43e" x="493.896484"/>
      <use xlink:href="#DejaVuSans-434" x="555.078125"/>
      <use xlink:href="#DejaVuSans-435" x="624.21875"/>
      <use xlink:href="#DejaVuSans-43b" x="685.742188"/>
      <use xlink:href="#DejaVuSans-438" x="749.658203"/>
     </g>
    </g>
    <g id="line2d_35">
     <path d="M 64.296 97.976562 
L 74.296 97.976562 
L 84.296 97.976562 
" style="fill: none; stroke-dasharray: 5.55,2.4; stroke-dashoffset: 0; stroke: #ff7f0e; stroke-width: 1.5"/>
    </g>
    <g id="text_18">
     <!-- Действительные значения -->
     <g transform="translate(92.296 101.476562) scale(0.1 -0.1)">
      <defs>
       <path id="DejaVuSans-439" d="M 3578 3500 
L 3578 0 
L 3006 0 
L 3006 2809 
L 1319 0 
L 581 0 
L 581 3500 
L 1153 3500 
L 1153 697 
L 2838 3500 
L 3578 3500 
z
M 1102 4833 
L 1471 4833 
Q 1505 4599 1656 4481 
Q 1808 4364 2080 4364 
Q 2349 4364 2499 4480 
Q 2649 4596 2689 4833 
L 3058 4833 
Q 3027 4386 2780 4161 
Q 2533 3936 2080 3936 
Q 1627 3936 1380 4161 
Q 1133 4386 1102 4833 
z
" transform="scale(0.015625)"/>
       <path id="DejaVuSans-441" d="M 3122 3366 
L 3122 2828 
Q 2878 2963 2633 3030 
Q 2388 3097 2138 3097 
Q 1578 3097 1268 2742 
Q 959 2388 959 1747 
Q 959 1106 1268 751 
Q 1578 397 2138 397 
Q 2388 397 2633 464 
Q 2878 531 3122 666 
L 3122 134 
Q 2881 22 2623 -34 
Q 2366 -91 2075 -91 
Q 1284 -91 818 406 
Q 353 903 353 1747 
Q 353 2603 823 3093 
Q 1294 3584 2113 3584 
Q 2378 3584 2631 3529 
Q 2884 3475 3122 3366 
z
" transform="scale(0.015625)"/>
       <path id="DejaVuSans-432" d="M 1156 1613 
L 1156 459 
L 1975 459 
Q 2369 459 2575 607 
Q 2781 756 2781 1038 
Q 2781 1319 2575 1466 
Q 2369 1613 1975 1613 
L 1156 1613 
z
M 1156 3041 
L 1156 2072 
L 1913 2072 
Q 2238 2072 2444 2201 
Q 2650 2331 2650 2563 
Q 2650 2794 2444 2917 
Q 2238 3041 1913 3041 
L 1156 3041 
z
M 581 3500 
L 1950 3500 
Q 2566 3500 2897 3275 
Q 3228 3050 3228 2634 
Q 3228 2313 3059 2123 
Q 2891 1934 2559 1888 
Q 2956 1813 3175 1575 
Q 3394 1338 3394 981 
Q 3394 513 3033 256 
Q 2672 0 2003 0 
L 581 0 
L 581 3500 
z
" transform="scale(0.015625)"/>
       <path id="DejaVuSans-44c" d="M 2781 1038 
Q 2781 1319 2576 1466 
Q 2372 1613 1978 1613 
L 1159 1613 
L 1159 459 
L 1978 459 
Q 2372 459 2576 607 
Q 2781 756 2781 1038 
z
M 581 3500 
L 1159 3500 
L 1159 2072 
L 2003 2072 
Q 2672 2072 3033 1817 
Q 3394 1563 3394 1038 
Q 3394 513 3033 256 
Q 2672 0 2003 0 
L 581 0 
L 581 3500 
z
" transform="scale(0.015625)"/>
       <path id="DejaVuSans-44b" d="M 3907 3500 
L 4482 3500 
L 4482 0 
L 3907 0 
L 3907 3500 
z
M 4195 3584 
L 4195 3584 
z
M 2781 1038 
Q 2781 1319 2576 1466 
Q 2372 1613 1978 1613 
L 1159 1613 
L 1159 459 
L 1978 459 
Q 2372 459 2576 607 
Q 2781 756 2781 1038 
z
M 581 3500 
L 1159 3500 
L 1159 2072 
L 2003 2072 
Q 2672 2072 3033 1817 
Q 3394 1563 3394 1038 
Q 3394 513 3033 256 
Q 2672 0 2003 0 
L 581 0 
L 581 3500 
z
" transform="scale(0.015625)"/>
       <path id="DejaVuSans-437" d="M 2206 1888 
Q 2594 1813 2809 1584 
Q 3025 1356 3025 1019 
Q 3025 478 2622 193 
Q 2219 -91 1475 -91 
Q 1225 -91 961 -47 
Q 697 -3 416 84 
L 416 619 
Q 638 503 903 445 
Q 1169 388 1459 388 
Q 1931 388 2195 563 
Q 2459 738 2459 1019 
Q 2459 1294 2225 1461 
Q 1991 1628 1563 1628 
L 1100 1628 
L 1100 2103 
L 1584 2103 
Q 1947 2103 2158 2242 
Q 2369 2381 2369 2600 
Q 2369 2800 2151 2944 
Q 1934 3088 1563 3088 
Q 1341 3088 1089 3047 
Q 838 3006 534 2916 
L 534 3438 
Q 841 3513 1106 3550 
Q 1372 3588 1609 3588 
Q 2222 3588 2576 3342 
Q 2931 3097 2931 2656 
Q 2931 2366 2743 2164 
Q 2556 1963 2206 1888 
z
" transform="scale(0.015625)"/>
       <path id="DejaVuSans-447" d="M 2625 0 
L 2625 1472 
L 1553 1472 
Q 1075 1472 756 1769 
Q 469 2038 469 2613 
L 469 3500 
L 1044 3500 
L 1044 2666 
Q 1044 2300 1206 2116 
Q 1372 1931 1697 1931 
L 2625 1931 
L 2625 3500 
L 3200 3500 
L 3200 0 
L 2625 0 
z
" transform="scale(0.015625)"/>
       <path id="DejaVuSans-44f" d="M 1181 2491 
Q 1181 2231 1381 2084 
Q 1581 1938 1953 1938 
L 2728 1938 
L 2728 3041 
L 1953 3041 
Q 1581 3041 1381 2897 
Q 1181 2753 1181 2491 
z
M 363 0 
L 1431 1534 
Q 1069 1616 828 1830 
Q 588 2044 588 2491 
Q 588 2997 923 3248 
Q 1259 3500 1938 3500 
L 3306 3500 
L 3306 0 
L 2728 0 
L 2728 1478 
L 2013 1478 
L 981 0 
L 363 0 
z
" transform="scale(0.015625)"/>
      </defs>
      <use xlink:href="#DejaVuSans-414"/>
      <use xlink:href="#DejaVuSans-435" x="78.125"/>
      <use xlink:href="#DejaVuSans-439" x="139.648438"/>
      <use xlink:href="#DejaVuSans-441" x="204.638672"/>
      <use xlink:href="#DejaVuSans-442" x="259.619141"/>
      <use xlink:href="#DejaVuSans-432" x="317.871094"/>
      <use xlink:href="#DejaVuSans-438" x="376.806641"/>
      <use xlink:href="#DejaVuSans-442" x="441.796875"/>
      <use xlink:href="#DejaVuSans-435" x="500.048828"/>
      <use xlink:href="#DejaVuSans-43b" x="561.572266"/>
      <use xlink:href="#DejaVuSans-44c" x="625.488281"/>
      <use xlink:href="#DejaVuSans-43d" x="684.423828"/>
      <use xlink:href="#DejaVuSans-44b" x="749.804688"/>
      <use xlink:href="#DejaVuSans-435" x="828.759766"/>
      <use xlink:href="#DejaVuSans-20" x="890.283203"/>
      <use xlink:href="#DejaVuSans-437" x="922.070312"/>
      <use xlink:href="#DejaVuSans-43d" x="975.244141"/>
      <use xlink:href="#DejaVuSans-430" x="1040.625"/>
      <use xlink:href="#DejaVuSans-447" x="1101.904297"/>
      <use xlink:href="#DejaVuSans-435" x="1160.986328"/>
      <use xlink:href="#DejaVuSans-43d" x="1222.509766"/>
      <use xlink:href="#DejaVuSans-438" x="1287.890625"/>
      <use xlink:href="#DejaVuSans-44f" x="1352.880859"/>
     </g>
    </g>
   </g>
  </g>
  <g id="text_19">
   <!-- Обучение модели LSTM (270 значений) -->
   <g transform="translate(567.200625 23.3625) scale(0.12 -0.12)">
    <defs>
     <path id="DejaVuSans-431" d="M 1991 3584 
Q 2741 3584 3169 3096 
Q 3597 2609 3597 1747 
Q 3597 888 3169 398 
Q 2741 -91 1991 -91 
Q 1238 -91 822 384 
Q 406 859 384 1747 
L 366 2463 
Q 350 2834 350 2963 
Q 350 3463 531 3831 
Q 816 4409 1308 4659 
Q 1800 4909 2625 4916 
Q 3006 4919 3175 4972 
L 3334 4516 
Q 3181 4453 3041 4450 
L 2259 4397 
Q 1866 4369 1628 4231 
Q 1006 3866 947 3388 
L 925 3213 
Q 1331 3584 1991 3584 
z
M 1991 3097 
Q 1528 3097 1259 2736 
Q 991 2375 991 1747 
Q 991 1119 1258 758 
Q 1525 397 1991 397 
Q 2450 397 2719 759 
Q 2988 1122 2988 1747 
Q 2988 2369 2719 2733 
Q 2450 3097 1991 3097 
z
" transform="scale(0.015625)"/>
     <path id="DejaVuSans-443" d="M 2059 -325 
Q 1816 -950 1584 -1140 
Q 1353 -1331 966 -1331 
L 506 -1331 
L 506 -850 
L 844 -850 
Q 1081 -850 1212 -737 
Q 1344 -625 1503 -206 
L 1606 56 
L 191 3500 
L 800 3500 
L 1894 763 
L 2988 3500 
L 3597 3500 
L 2059 -325 
z
" transform="scale(0.015625)"/>
     <path id="DejaVuSans-4c" d="M 628 4666 
L 1259 4666 
L 1259 531 
L 3531 531 
L 3531 0 
L 628 0 
L 628 4666 
z
" transform="scale(0.015625)"/>
     <path id="DejaVuSans-53" d="M 3425 4513 
L 3425 3897 
Q 3066 4069 2747 4153 
Q 2428 4238 2131 4238 
Q 1616 4238 1336 4038 
Q 1056 3838 1056 3469 
Q 1056 3159 1242 3001 
Q 1428 2844 1947 2747 
L 2328 2669 
Q 3034 2534 3370 2195 
Q 3706 1856 3706 1288 
Q 3706 609 3251 259 
Q 2797 -91 1919 -91 
Q 1588 -91 1214 -16 
Q 841 59 441 206 
L 441 856 
Q 825 641 1194 531 
Q 1563 422 1919 422 
Q 2459 422 2753 634 
Q 3047 847 3047 1241 
Q 3047 1584 2836 1778 
Q 2625 1972 2144 2069 
L 1759 2144 
Q 1053 2284 737 2584 
Q 422 2884 422 3419 
Q 422 4038 858 4394 
Q 1294 4750 2059 4750 
Q 2388 4750 2728 4690 
Q 3069 4631 3425 4513 
z
" transform="scale(0.015625)"/>
     <path id="DejaVuSans-54" d="M -19 4666 
L 3928 4666 
L 3928 4134 
L 2272 4134 
L 2272 0 
L 1638 0 
L 1638 4134 
L -19 4134 
L -19 4666 
z
" transform="scale(0.015625)"/>
     <path id="DejaVuSans-4d" d="M 628 4666 
L 1569 4666 
L 2759 1491 
L 3956 4666 
L 4897 4666 
L 4897 0 
L 4281 0 
L 4281 4097 
L 3078 897 
L 2444 897 
L 1241 4097 
L 1241 0 
L 628 0 
L 628 4666 
z
" transform="scale(0.015625)"/>
     <path id="DejaVuSans-28" d="M 1984 4856 
Q 1566 4138 1362 3434 
Q 1159 2731 1159 2009 
Q 1159 1288 1364 580 
Q 1569 -128 1984 -844 
L 1484 -844 
Q 1016 -109 783 600 
Q 550 1309 550 2009 
Q 550 2706 781 3412 
Q 1013 4119 1484 4856 
L 1984 4856 
z
" transform="scale(0.015625)"/>
     <path id="DejaVuSans-29" d="M 513 4856 
L 1013 4856 
Q 1481 4119 1714 3412 
Q 1947 2706 1947 2009 
Q 1947 1309 1714 600 
Q 1481 -109 1013 -844 
L 513 -844 
Q 928 -128 1133 580 
Q 1338 1288 1338 2009 
Q 1338 2731 1133 3434 
Q 928 4138 513 4856 
z
" transform="scale(0.015625)"/>
    </defs>
    <use xlink:href="#DejaVuSans-41e"/>
    <use xlink:href="#DejaVuSans-431" x="78.710938"/>
    <use xlink:href="#DejaVuSans-443" x="140.380859"/>
    <use xlink:href="#DejaVuSans-447" x="199.560547"/>
    <use xlink:href="#DejaVuSans-435" x="258.642578"/>
    <use xlink:href="#DejaVuSans-43d" x="320.166016"/>
    <use xlink:href="#DejaVuSans-438" x="385.546875"/>
    <use xlink:href="#DejaVuSans-435" x="450.537109"/>
    <use xlink:href="#DejaVuSans-20" x="512.060547"/>
    <use xlink:href="#DejaVuSans-43c" x="543.847656"/>
    <use xlink:href="#DejaVuSans-43e" x="619.287109"/>
    <use xlink:href="#DejaVuSans-434" x="680.46875"/>
    <use xlink:href="#DejaVuSans-435" x="749.609375"/>
    <use xlink:href="#DejaVuSans-43b" x="811.132812"/>
    <use xlink:href="#DejaVuSans-438" x="875.048828"/>
    <use xlink:href="#DejaVuSans-20" x="940.039062"/>
    <use xlink:href="#DejaVuSans-4c" x="971.826172"/>
    <use xlink:href="#DejaVuSans-53" x="1027.539062"/>
    <use xlink:href="#DejaVuSans-54" x="1091.015625"/>
    <use xlink:href="#DejaVuSans-4d" x="1152.099609"/>
    <use xlink:href="#DejaVuSans-20" x="1238.378906"/>
    <use xlink:href="#DejaVuSans-28" x="1270.166016"/>
    <use xlink:href="#DejaVuSans-32" x="1309.179688"/>
    <use xlink:href="#DejaVuSans-37" x="1372.802734"/>
    <use xlink:href="#DejaVuSans-30" x="1436.425781"/>
    <use xlink:href="#DejaVuSans-20" x="1500.048828"/>
    <use xlink:href="#DejaVuSans-437" x="1531.835938"/>
    <use xlink:href="#DejaVuSans-43d" x="1585.009766"/>
    <use xlink:href="#DejaVuSans-430" x="1650.390625"/>
    <use xlink:href="#DejaVuSans-447" x="1711.669922"/>
    <use xlink:href="#DejaVuSans-435" x="1770.751953"/>
    <use xlink:href="#DejaVuSans-43d" x="1832.275391"/>
    <use xlink:href="#DejaVuSans-438" x="1897.65625"/>
    <use xlink:href="#DejaVuSans-439" x="1962.646484"/>
    <use xlink:href="#DejaVuSans-29" x="2027.636719"/>
   </g>
  </g>
 </g>
 <defs>
  <clipPath id="p5f03be8e7e">
   <rect x="55.296" y="70.2" width="1271.808" height="561.6"/>
  </clipPath>
 </defs>
</svg>
